# Blender 4.0.2
# www.blender.org
mtllib todo.mtl
o Untitled
v -0.497000 -0.498000 0.497000
v -0.497000 -0.498000 -0.499000
v -0.497000 -0.332000 0.165000
v -0.497000 -0.332000 -0.167000
v -0.497000 -0.166000 0.331000
v -0.497000 -0.166000 0.165000
v -0.497000 -0.166000 -0.167000
v -0.497000 -0.166000 -0.333000
v -0.497000 0.166000 0.331000
v -0.497000 0.166000 0.165000
v -0.497000 0.166000 -0.167000
v -0.497000 0.166000 -0.333000
v -0.497000 0.332000 0.165000
v -0.497000 0.332000 -0.167000
v -0.497000 0.498000 0.497000
v -0.497000 0.498000 -0.499000
v 0.001000 -0.166000 0.165000
v 0.001000 -0.166000 -0.001000
v 0.001000 0.000000 0.165000
v 0.001000 0.000000 -0.001000
v -0.165000 -0.166000 0.165000
v -0.165000 -0.166000 -0.001000
v -0.165000 0.000000 0.165000
v -0.165000 0.000000 -0.001000
v 0.499000 -0.498000 0.497000
v 0.499000 -0.498000 -0.499000
v 0.499000 -0.332000 0.165000
v 0.499000 -0.332000 -0.167000
v 0.499000 -0.166000 0.331000
v 0.499000 -0.166000 0.165000
v 0.499000 -0.166000 -0.167000
v 0.499000 -0.166000 -0.333000
v 0.499000 0.166000 0.331000
v 0.499000 0.166000 0.165000
v 0.499000 0.166000 -0.167000
v 0.499000 0.166000 -0.333000
v 0.499000 0.332000 0.165000
v 0.499000 0.332000 -0.167000
v 0.499000 0.498000 0.497000
v 0.499000 0.498000 -0.499000
v -0.497000 -0.498000 0.497000
v -0.497000 0.498000 0.497000
v -0.331000 -0.166000 0.497000
v -0.331000 0.166000 0.497000
v -0.165000 -0.332000 0.497000
v -0.165000 -0.166000 0.497000
v -0.165000 0.166000 0.497000
v -0.165000 0.332000 0.497000
v 0.167000 -0.332000 0.497000
v 0.167000 -0.166000 0.497000
v 0.167000 0.166000 0.497000
v 0.167000 0.332000 0.497000
v 0.333000 -0.166000 0.497000
v 0.333000 0.166000 0.497000
v 0.499000 -0.498000 0.497000
v 0.499000 0.498000 0.497000
v -0.165000 -0.166000 -0.001000
v -0.165000 0.000000 -0.001000
v 0.001000 -0.166000 -0.001000
v 0.001000 0.000000 -0.001000
v -0.165000 -0.166000 0.165000
v -0.165000 0.000000 0.165000
v 0.001000 -0.166000 0.165000
v 0.001000 0.000000 0.165000
v -0.497000 -0.498000 -0.499000
v -0.497000 0.498000 -0.499000
v -0.331000 -0.166000 -0.499000
v -0.331000 0.166000 -0.499000
v -0.165000 -0.332000 -0.499000
v -0.165000 -0.166000 -0.499000
v -0.165000 0.166000 -0.499000
v -0.165000 0.332000 -0.499000
v 0.167000 -0.332000 -0.499000
v 0.167000 -0.166000 -0.499000
v 0.167000 0.166000 -0.499000
v 0.167000 0.332000 -0.499000
v 0.333000 -0.166000 -0.499000
v 0.333000 0.166000 -0.499000
v 0.499000 -0.498000 -0.499000
v 0.499000 0.498000 -0.499000
v -0.497000 -0.498000 0.497000
v 0.499000 -0.498000 0.497000
v -0.497000 -0.498000 -0.499000
v 0.499000 -0.498000 -0.499000
v -0.165000 0.000000 0.165000
v 0.001000 0.000000 0.165000
v -0.165000 0.000000 -0.001000
v 0.001000 0.000000 -0.001000
v -0.165000 -0.166000 0.165000
v 0.001000 -0.166000 0.165000
v -0.165000 -0.166000 -0.001000
v 0.001000 -0.166000 -0.001000
v -0.497000 0.498000 0.497000
v 0.499000 0.498000 0.497000
v -0.165000 0.498000 0.331000
v 0.167000 0.498000 0.331000
v -0.331000 0.498000 0.165000
v -0.165000 0.498000 0.165000
v 0.167000 0.498000 0.165000
v 0.333000 0.498000 0.165000
v -0.331000 0.498000 -0.167000
v -0.165000 0.498000 -0.167000
v 0.167000 0.498000 -0.167000
v 0.333000 0.498000 -0.167000
v -0.165000 0.498000 -0.333000
v 0.167000 0.498000 -0.333000
v -0.497000 0.498000 -0.499000
v 0.499000 0.498000 -0.499000
vn -1.0000 -0.0000 -0.0000
vn 1.0000 -0.0000 -0.0000
vn -0.0000 -0.0000 1.0000
vn -0.0000 -0.0000 -1.0000
vn -0.0000 -1.0000 -0.0000
vn -0.0000 1.0000 -0.0000
vt 0.478516 0.500000
vt 0.994141 0.500000
vt 0.775391 0.500000
s 0
usemtl palette.004
f 3/1/1 2/1/1 1/1/1
f 4/1/1 2/1/1 3/1/1
f 5/1/1 3/1/1 1/1/1
f 6/2/1 4/2/1 3/2/1
f 6/1/1 3/1/1 5/1/1
f 7/1/1 2/1/1 4/1/1
f 7/2/1 4/2/1 6/2/1
f 8/1/1 2/1/1 7/1/1
f 9/2/1 6/2/1 5/2/1
f 9/1/1 5/1/1 1/1/1
f 9/2/1 8/2/1 7/2/1
f 9/2/1 7/2/1 6/2/1
f 10/2/1 8/2/1 9/2/1
f 11/2/1 8/2/1 10/2/1
f 12/1/1 2/1/1 8/1/1
f 12/2/1 8/2/1 11/2/1
f 13/2/1 11/2/1 10/2/1
f 13/1/1 10/1/1 9/1/1
f 14/1/1 12/1/1 11/1/1
f 14/2/1 11/2/1 13/2/1
f 15/1/1 9/1/1 1/1/1
f 15/1/1 13/1/1 9/1/1
f 15/1/1 14/1/1 13/1/1
f 16/1/1 2/1/1 12/1/1
f 16/1/1 14/1/1 15/1/1
f 16/1/1 12/1/1 14/1/1
f 19/3/1 18/3/1 17/3/1
f 20/3/1 18/3/1 19/3/1
f 21/3/2 22/3/2 23/3/2
f 23/3/2 22/3/2 24/3/2
f 25/1/2 26/1/2 27/1/2
f 27/1/2 26/1/2 28/1/2
f 25/1/2 27/1/2 29/1/2
f 27/2/2 28/2/2 30/2/2
f 29/1/2 27/1/2 30/1/2
f 28/1/2 26/1/2 31/1/2
f 30/2/2 28/2/2 31/2/2
f 31/1/2 26/1/2 32/1/2
f 29/2/2 30/2/2 33/2/2
f 25/1/2 29/1/2 33/1/2
f 31/2/2 32/2/2 33/2/2
f 30/2/2 31/2/2 33/2/2
f 33/2/2 32/2/2 34/2/2
f 34/2/2 32/2/2 35/2/2
f 32/1/2 26/1/2 36/1/2
f 35/2/2 32/2/2 36/2/2
f 34/2/2 35/2/2 37/2/2
f 33/1/2 34/1/2 37/1/2
f 35/1/2 36/1/2 38/1/2
f 37/2/2 35/2/2 38/2/2
f 25/1/2 33/1/2 39/1/2
f 33/1/2 37/1/2 39/1/2
f 37/1/2 38/1/2 39/1/2
f 36/1/2 26/1/2 40/1/2
f 39/1/2 38/1/2 40/1/2
f 38/1/2 36/1/2 40/1/2
f 43/1/3 42/1/3 41/1/3
f 44/1/3 42/1/3 43/1/3
f 45/1/3 43/1/3 41/1/3
f 46/2/3 44/2/3 43/2/3
f 46/1/3 43/1/3 45/1/3
f 47/1/3 42/1/3 44/1/3
f 47/2/3 44/2/3 46/2/3
f 48/1/3 42/1/3 47/1/3
f 49/2/3 46/2/3 45/2/3
f 49/1/3 45/1/3 41/1/3
f 49/2/3 48/2/3 47/2/3
f 49/2/3 47/2/3 46/2/3
f 50/2/3 48/2/3 49/2/3
f 51/2/3 48/2/3 50/2/3
f 52/1/3 42/1/3 48/1/3
f 52/2/3 48/2/3 51/2/3
f 53/2/3 51/2/3 50/2/3
f 53/1/3 50/1/3 49/1/3
f 54/1/3 52/1/3 51/1/3
f 54/2/3 51/2/3 53/2/3
f 55/1/3 49/1/3 41/1/3
f 55/1/3 53/1/3 49/1/3
f 55/1/3 54/1/3 53/1/3
f 56/1/3 42/1/3 52/1/3
f 56/1/3 54/1/3 55/1/3
f 56/1/3 52/1/3 54/1/3
f 59/3/3 58/3/3 57/3/3
f 60/3/3 58/3/3 59/3/3
f 61/3/4 62/3/4 63/3/4
f 63/3/4 62/3/4 64/3/4
f 65/1/4 66/1/4 67/1/4
f 67/1/4 66/1/4 68/1/4
f 65/1/4 67/1/4 69/1/4
f 67/2/4 68/2/4 70/2/4
f 69/1/4 67/1/4 70/1/4
f 68/1/4 66/1/4 71/1/4
f 70/2/4 68/2/4 71/2/4
f 71/1/4 66/1/4 72/1/4
f 69/2/4 70/2/4 73/2/4
f 65/1/4 69/1/4 73/1/4
f 71/2/4 72/2/4 73/2/4
f 70/2/4 71/2/4 73/2/4
f 73/2/4 72/2/4 74/2/4
f 74/2/4 72/2/4 75/2/4
f 72/1/4 66/1/4 76/1/4
f 75/2/4 72/2/4 76/2/4
f 74/2/4 75/2/4 77/2/4
f 73/1/4 74/1/4 77/1/4
f 75/1/4 76/1/4 78/1/4
f 77/2/4 75/2/4 78/2/4
f 65/1/4 73/1/4 79/1/4
f 73/1/4 77/1/4 79/1/4
f 77/1/4 78/1/4 79/1/4
f 76/1/4 66/1/4 80/1/4
f 79/1/4 78/1/4 80/1/4
f 78/1/4 76/1/4 80/1/4
f 83/1/5 82/1/5 81/1/5
f 84/1/5 82/1/5 83/1/5
f 87/3/5 86/3/5 85/3/5
f 88/3/5 86/3/5 87/3/5
f 89/3/6 90/3/6 91/3/6
f 91/3/6 90/3/6 92/3/6
f 93/1/6 94/1/6 95/1/6
f 95/1/6 94/1/6 96/1/6
f 93/1/6 95/1/6 97/1/6
f 95/2/6 96/2/6 98/2/6
f 97/1/6 95/1/6 98/1/6
f 96/1/6 94/1/6 99/1/6
f 98/2/6 96/2/6 99/2/6
f 99/1/6 94/1/6 100/1/6
f 97/2/6 98/2/6 101/2/6
f 93/1/6 97/1/6 101/1/6
f 99/2/6 100/2/6 101/2/6
f 98/2/6 99/2/6 101/2/6
f 101/2/6 100/2/6 102/2/6
f 102/2/6 100/2/6 103/2/6
f 100/1/6 94/1/6 104/1/6
f 103/2/6 100/2/6 104/2/6
f 102/2/6 103/2/6 105/2/6
f 101/1/6 102/1/6 105/1/6
f 103/1/6 104/1/6 106/1/6
f 105/2/6 103/2/6 106/2/6
f 93/1/6 101/1/6 107/1/6
f 101/1/6 105/1/6 107/1/6
f 105/1/6 106/1/6 107/1/6
f 104/1/6 94/1/6 108/1/6
f 107/1/6 106/1/6 108/1/6
f 106/1/6 104/1/6 108/1/6
