# Blender 4.0.2
# www.blender.org
mtllib box.mtl
o Untitled
v -0.498000 -0.500000 0.498000
v -0.498000 -0.500000 0.166000
v -0.498000 -0.500000 -0.166000
v -0.498000 -0.500000 -0.498000
v -0.498000 -0.334000 0.332000
v -0.498000 -0.334000 0.166000
v -0.498000 -0.334000 -0.166000
v -0.498000 -0.334000 -0.332000
v -0.498000 -0.168000 0.498000
v -0.498000 -0.168000 0.332000
v -0.498000 -0.168000 -0.332000
v -0.498000 -0.168000 -0.498000
v -0.498000 0.164000 0.498000
v -0.498000 0.164000 0.332000
v -0.498000 0.164000 -0.332000
v -0.498000 0.164000 -0.498000
v -0.498000 0.330000 0.332000
v -0.498000 0.330000 0.166000
v -0.498000 0.330000 -0.166000
v -0.498000 0.330000 -0.332000
v -0.498000 0.496000 0.498000
v -0.498000 0.496000 0.166000
v -0.498000 0.496000 -0.166000
v -0.498000 0.496000 -0.498000
v 0.000000 -0.168000 0.166000
v 0.000000 -0.168000 -0.000000
v 0.000000 -0.002000 0.166000
v 0.000000 -0.002000 -0.000000
v -0.166000 -0.168000 0.166000
v -0.166000 -0.168000 -0.000000
v -0.166000 -0.002000 0.166000
v -0.166000 -0.002000 -0.000000
v 0.498000 -0.500000 0.498000
v 0.498000 -0.500000 0.166000
v 0.498000 -0.500000 -0.166000
v 0.498000 -0.500000 -0.498000
v 0.498000 -0.334000 0.332000
v 0.498000 -0.334000 0.166000
v 0.498000 -0.334000 -0.166000
v 0.498000 -0.334000 -0.332000
v 0.498000 -0.168000 0.498000
v 0.498000 -0.168000 0.332000
v 0.498000 -0.168000 -0.332000
v 0.498000 -0.168000 -0.498000
v 0.498000 0.164000 0.498000
v 0.498000 0.164000 0.332000
v 0.498000 0.164000 -0.332000
v 0.498000 0.164000 -0.498000
v 0.498000 0.330000 0.332000
v 0.498000 0.330000 0.166000
v 0.498000 0.330000 -0.166000
v 0.498000 0.330000 -0.332000
v 0.498000 0.496000 0.498000
v 0.498000 0.496000 0.166000
v 0.498000 0.496000 -0.166000
v 0.498000 0.496000 -0.498000
v -0.498000 -0.500000 0.498000
v -0.498000 -0.168000 0.498000
v -0.498000 0.164000 0.498000
v -0.498000 0.496000 0.498000
v -0.332000 -0.334000 0.498000
v -0.332000 -0.168000 0.498000
v -0.332000 0.164000 0.498000
v -0.332000 0.330000 0.498000
v -0.166000 -0.500000 0.498000
v -0.166000 -0.334000 0.498000
v -0.166000 0.330000 0.498000
v -0.166000 0.496000 0.498000
v 0.166000 -0.500000 0.498000
v 0.166000 -0.334000 0.498000
v 0.166000 0.330000 0.498000
v 0.166000 0.496000 0.498000
v 0.332000 -0.334000 0.498000
v 0.332000 -0.168000 0.498000
v 0.332000 0.164000 0.498000
v 0.332000 0.330000 0.498000
v 0.498000 -0.500000 0.498000
v 0.498000 -0.168000 0.498000
v 0.498000 0.164000 0.498000
v 0.498000 0.496000 0.498000
v -0.166000 -0.168000 -0.000000
v -0.166000 -0.002000 -0.000000
v 0.000000 -0.168000 -0.000000
v 0.000000 -0.002000 -0.000000
v -0.166000 -0.168000 0.166000
v -0.166000 -0.002000 0.166000
v 0.000000 -0.168000 0.166000
v 0.000000 -0.002000 0.166000
v -0.498000 -0.500000 -0.498000
v -0.498000 -0.168000 -0.498000
v -0.498000 0.164000 -0.498000
v -0.498000 0.496000 -0.498000
v -0.332000 -0.334000 -0.498000
v -0.332000 -0.168000 -0.498000
v -0.332000 0.164000 -0.498000
v -0.332000 0.330000 -0.498000
v -0.166000 -0.500000 -0.498000
v -0.166000 -0.334000 -0.498000
v -0.166000 0.330000 -0.498000
v -0.166000 0.496000 -0.498000
v 0.166000 -0.500000 -0.498000
v 0.166000 -0.334000 -0.498000
v 0.166000 0.330000 -0.498000
v 0.166000 0.496000 -0.498000
v 0.332000 -0.334000 -0.498000
v 0.332000 -0.168000 -0.498000
v 0.332000 0.164000 -0.498000
v 0.332000 0.330000 -0.498000
v 0.498000 -0.500000 -0.498000
v 0.498000 -0.168000 -0.498000
v 0.498000 0.164000 -0.498000
v 0.498000 0.496000 -0.498000
v -0.498000 -0.500000 0.498000
v -0.166000 -0.500000 0.498000
v 0.166000 -0.500000 0.498000
v 0.498000 -0.500000 0.498000
v -0.332000 -0.500000 0.332000
v -0.166000 -0.500000 0.332000
v 0.166000 -0.500000 0.332000
v 0.332000 -0.500000 0.332000
v -0.498000 -0.500000 0.166000
v -0.332000 -0.500000 0.166000
v 0.332000 -0.500000 0.166000
v 0.498000 -0.500000 0.166000
v -0.498000 -0.500000 -0.166000
v -0.332000 -0.500000 -0.166000
v 0.332000 -0.500000 -0.166000
v 0.498000 -0.500000 -0.166000
v -0.332000 -0.500000 -0.332000
v -0.166000 -0.500000 -0.332000
v 0.166000 -0.500000 -0.332000
v 0.332000 -0.500000 -0.332000
v -0.498000 -0.500000 -0.498000
v -0.166000 -0.500000 -0.498000
v 0.166000 -0.500000 -0.498000
v 0.498000 -0.500000 -0.498000
v -0.166000 -0.002000 0.166000
v 0.000000 -0.002000 0.166000
v -0.166000 -0.002000 -0.000000
v 0.000000 -0.002000 -0.000000
v -0.166000 -0.168000 0.166000
v 0.000000 -0.168000 0.166000
v -0.166000 -0.168000 -0.000000
v 0.000000 -0.168000 -0.000000
v -0.498000 0.496000 0.498000
v -0.166000 0.496000 0.498000
v 0.166000 0.496000 0.498000
v 0.498000 0.496000 0.498000
v -0.332000 0.496000 0.332000
v -0.166000 0.496000 0.332000
v 0.166000 0.496000 0.332000
v 0.332000 0.496000 0.332000
v -0.498000 0.496000 0.166000
v -0.332000 0.496000 0.166000
v 0.332000 0.496000 0.166000
v 0.498000 0.496000 0.166000
v -0.498000 0.496000 -0.166000
v -0.332000 0.496000 -0.166000
v 0.332000 0.496000 -0.166000
v 0.498000 0.496000 -0.166000
v -0.332000 0.496000 -0.332000
v -0.166000 0.496000 -0.332000
v 0.166000 0.496000 -0.332000
v 0.332000 0.496000 -0.332000
v -0.498000 0.496000 -0.498000
v -0.166000 0.496000 -0.498000
v 0.166000 0.496000 -0.498000
v 0.498000 0.496000 -0.498000
vn -1.0000 -0.0000 -0.0000
vn 1.0000 -0.0000 -0.0000
vn -0.0000 -0.0000 1.0000
vn -0.0000 -0.0000 -1.0000
vn -0.0000 -1.0000 -0.0000
vn -0.0000 1.0000 -0.0000
vt 0.681641 0.500000
vt 0.677734 0.500000
vt 0.650391 0.500000
s 0
usemtl palette
f 5/1/1 2/1/1 1/1/1
f 6/2/1 3/2/1 2/2/1
f 6/1/1 2/1/1 5/1/1
f 7/1/1 4/1/1 3/1/1
f 7/2/1 3/2/1 6/2/1
f 8/1/1 4/1/1 7/1/1
f 9/1/1 5/1/1 1/1/1
f 10/3/1 6/3/1 5/3/1
f 10/1/1 5/1/1 9/1/1
f 10/3/1 7/3/1 6/3/1
f 10/3/1 8/3/1 7/3/1
f 11/1/1 4/1/1 8/1/1
f 11/3/1 8/3/1 10/3/1
f 12/1/1 4/1/1 11/1/1
f 13/2/1 10/2/1 9/2/1
f 14/3/1 11/3/1 10/3/1
f 14/2/1 10/2/1 13/2/1
f 15/2/1 12/2/1 11/2/1
f 15/3/1 11/3/1 14/3/1
f 16/2/1 12/2/1 15/2/1
f 17/1/1 14/1/1 13/1/1
f 17/3/1 15/3/1 14/3/1
f 18/3/1 15/3/1 17/3/1
f 19/3/1 15/3/1 18/3/1
f 20/1/1 16/1/1 15/1/1
f 20/3/1 15/3/1 19/3/1
f 21/1/1 17/1/1 13/1/1
f 21/1/1 18/1/1 17/1/1
f 22/2/1 19/2/1 18/2/1
f 22/1/1 18/1/1 21/1/1
f 23/1/1 20/1/1 19/1/1
f 23/2/1 19/2/1 22/2/1
f 24/1/1 16/1/1 20/1/1
f 24/1/1 20/1/1 23/1/1
f 27/3/1 26/3/1 25/3/1
f 28/3/1 26/3/1 27/3/1
f 29/3/2 30/3/2 31/3/2
f 31/3/2 30/3/2 32/3/2
f 33/1/2 34/1/2 37/1/2
f 34/2/2 35/2/2 38/2/2
f 37/1/2 34/1/2 38/1/2
f 35/1/2 36/1/2 39/1/2
f 38/2/2 35/2/2 39/2/2
f 39/1/2 36/1/2 40/1/2
f 33/1/2 37/1/2 41/1/2
f 37/3/2 38/3/2 42/3/2
f 41/1/2 37/1/2 42/1/2
f 38/3/2 39/3/2 42/3/2
f 39/3/2 40/3/2 42/3/2
f 40/1/2 36/1/2 43/1/2
f 42/3/2 40/3/2 43/3/2
f 43/1/2 36/1/2 44/1/2
f 41/2/2 42/2/2 45/2/2
f 42/3/2 43/3/2 46/3/2
f 45/2/2 42/2/2 46/2/2
f 43/2/2 44/2/2 47/2/2
f 46/3/2 43/3/2 47/3/2
f 47/2/2 44/2/2 48/2/2
f 45/1/2 46/1/2 49/1/2
f 46/3/2 47/3/2 49/3/2
f 49/3/2 47/3/2 50/3/2
f 50/3/2 47/3/2 51/3/2
f 47/1/2 48/1/2 52/1/2
f 51/3/2 47/3/2 52/3/2
f 45/1/2 49/1/2 53/1/2
f 49/1/2 50/1/2 53/1/2
f 50/2/2 51/2/2 54/2/2
f 53/1/2 50/1/2 54/1/2
f 51/1/2 52/1/2 55/1/2
f 54/2/2 51/2/2 55/2/2
f 52/1/2 48/1/2 56/1/2
f 55/1/2 52/1/2 56/1/2
f 61/1/3 58/1/3 57/1/3
f 62/2/3 59/2/3 58/2/3
f 62/1/3 58/1/3 61/1/3
f 63/1/3 60/1/3 59/1/3
f 63/2/3 59/2/3 62/2/3
f 64/1/3 60/1/3 63/1/3
f 65/1/3 61/1/3 57/1/3
f 66/3/3 62/3/3 61/3/3
f 66/1/3 61/1/3 65/1/3
f 66/3/3 63/3/3 62/3/3
f 66/3/3 64/3/3 63/3/3
f 67/1/3 60/1/3 64/1/3
f 67/3/3 64/3/3 66/3/3
f 68/1/3 60/1/3 67/1/3
f 69/2/3 66/2/3 65/2/3
f 70/3/3 67/3/3 66/3/3
f 70/2/3 66/2/3 69/2/3
f 71/2/3 68/2/3 67/2/3
f 71/3/3 67/3/3 70/3/3
f 72/2/3 68/2/3 71/2/3
f 73/1/3 70/1/3 69/1/3
f 73/3/3 71/3/3 70/3/3
f 74/3/3 71/3/3 73/3/3
f 75/3/3 71/3/3 74/3/3
f 76/1/3 72/1/3 71/1/3
f 76/3/3 71/3/3 75/3/3
f 77/1/3 73/1/3 69/1/3
f 77/1/3 74/1/3 73/1/3
f 78/2/3 75/2/3 74/2/3
f 78/1/3 74/1/3 77/1/3
f 79/1/3 76/1/3 75/1/3
f 79/2/3 75/2/3 78/2/3
f 80/1/3 72/1/3 76/1/3
f 80/1/3 76/1/3 79/1/3
f 83/3/3 82/3/3 81/3/3
f 84/3/3 82/3/3 83/3/3
f 85/3/4 86/3/4 87/3/4
f 87/3/4 86/3/4 88/3/4
f 89/1/4 90/1/4 93/1/4
f 90/2/4 91/2/4 94/2/4
f 93/1/4 90/1/4 94/1/4
f 91/1/4 92/1/4 95/1/4
f 94/2/4 91/2/4 95/2/4
f 95/1/4 92/1/4 96/1/4
f 89/1/4 93/1/4 97/1/4
f 93/3/4 94/3/4 98/3/4
f 97/1/4 93/1/4 98/1/4
f 94/3/4 95/3/4 98/3/4
f 95/3/4 96/3/4 98/3/4
f 96/1/4 92/1/4 99/1/4
f 98/3/4 96/3/4 99/3/4
f 99/1/4 92/1/4 100/1/4
f 97/2/4 98/2/4 101/2/4
f 98/3/4 99/3/4 102/3/4
f 101/2/4 98/2/4 102/2/4
f 99/2/4 100/2/4 103/2/4
f 102/3/4 99/3/4 103/3/4
f 103/2/4 100/2/4 104/2/4
f 101/1/4 102/1/4 105/1/4
f 102/3/4 103/3/4 105/3/4
f 105/3/4 103/3/4 106/3/4
f 106/3/4 103/3/4 107/3/4
f 103/1/4 104/1/4 108/1/4
f 107/3/4 103/3/4 108/3/4
f 101/1/4 105/1/4 109/1/4
f 105/1/4 106/1/4 109/1/4
f 106/2/4 107/2/4 110/2/4
f 109/1/4 106/1/4 110/1/4
f 107/1/4 108/1/4 111/1/4
f 110/2/4 107/2/4 111/2/4
f 108/1/4 104/1/4 112/1/4
f 111/1/4 108/1/4 112/1/4
f 117/1/5 114/1/5 113/1/5
f 118/2/5 115/2/5 114/2/5
f 118/1/5 114/1/5 117/1/5
f 119/1/5 116/1/5 115/1/5
f 119/2/5 115/2/5 118/2/5
f 120/1/5 116/1/5 119/1/5
f 121/1/5 117/1/5 113/1/5
f 122/3/5 118/3/5 117/3/5
f 122/1/5 117/1/5 121/1/5
f 122/3/5 119/3/5 118/3/5
f 122/3/5 120/3/5 119/3/5
f 123/1/5 116/1/5 120/1/5
f 123/3/5 120/3/5 122/3/5
f 124/1/5 116/1/5 123/1/5
f 125/2/5 122/2/5 121/2/5
f 126/3/5 123/3/5 122/3/5
f 126/2/5 122/2/5 125/2/5
f 127/2/5 124/2/5 123/2/5
f 127/3/5 123/3/5 126/3/5
f 128/2/5 124/2/5 127/2/5
f 129/1/5 126/1/5 125/1/5
f 129/3/5 127/3/5 126/3/5
f 130/3/5 127/3/5 129/3/5
f 131/3/5 127/3/5 130/3/5
f 132/1/5 128/1/5 127/1/5
f 132/3/5 127/3/5 131/3/5
f 133/1/5 129/1/5 125/1/5
f 133/1/5 130/1/5 129/1/5
f 134/2/5 131/2/5 130/2/5
f 134/1/5 130/1/5 133/1/5
f 135/1/5 132/1/5 131/1/5
f 135/2/5 131/2/5 134/2/5
f 136/1/5 128/1/5 132/1/5
f 136/1/5 132/1/5 135/1/5
f 139/3/5 138/3/5 137/3/5
f 140/3/5 138/3/5 139/3/5
f 141/3/6 142/3/6 143/3/6
f 143/3/6 142/3/6 144/3/6
f 145/1/6 146/1/6 149/1/6
f 146/2/6 147/2/6 150/2/6
f 149/1/6 146/1/6 150/1/6
f 147/1/6 148/1/6 151/1/6
f 150/2/6 147/2/6 151/2/6
f 151/1/6 148/1/6 152/1/6
f 145/1/6 149/1/6 153/1/6
f 149/3/6 150/3/6 154/3/6
f 153/1/6 149/1/6 154/1/6
f 150/3/6 151/3/6 154/3/6
f 151/3/6 152/3/6 154/3/6
f 152/1/6 148/1/6 155/1/6
f 154/3/6 152/3/6 155/3/6
f 155/1/6 148/1/6 156/1/6
f 153/2/6 154/2/6 157/2/6
f 154/3/6 155/3/6 158/3/6
f 157/2/6 154/2/6 158/2/6
f 155/2/6 156/2/6 159/2/6
f 158/3/6 155/3/6 159/3/6
f 159/2/6 156/2/6 160/2/6
f 157/1/6 158/1/6 161/1/6
f 158/3/6 159/3/6 161/3/6
f 161/3/6 159/3/6 162/3/6
f 162/3/6 159/3/6 163/3/6
f 159/1/6 160/1/6 164/1/6
f 163/3/6 159/3/6 164/3/6
f 157/1/6 161/1/6 165/1/6
f 161/1/6 162/1/6 165/1/6
f 162/2/6 163/2/6 166/2/6
f 165/1/6 162/1/6 166/1/6
f 163/1/6 164/1/6 167/1/6
f 166/2/6 163/2/6 167/2/6
f 164/1/6 160/1/6 168/1/6
f 167/1/6 164/1/6 168/1/6
