# Blender 4.0.2
# www.blender.org
mtllib wall3.mtl
o Untitled
v -0.497000 -0.498000 0.497000
v -0.497000 -0.498000 0.331000
v -0.497000 -0.498000 0.165000
v -0.497000 -0.498000 -0.001000
v -0.497000 -0.498000 -0.167000
v -0.497000 -0.498000 -0.333000
v -0.497000 -0.498000 -0.499000
v -0.497000 -0.332000 0.165000
v -0.497000 -0.332000 -0.001000
v -0.497000 -0.166000 0.331000
v -0.497000 -0.166000 0.165000
v -0.497000 -0.166000 -0.001000
v -0.497000 -0.166000 -0.167000
v -0.497000 -0.166000 -0.333000
v -0.497000 0.000000 0.497000
v -0.497000 0.000000 0.331000
v -0.497000 0.332000 0.497000
v -0.497000 0.332000 0.331000
v -0.497000 0.332000 0.165000
v -0.497000 0.332000 -0.001000
v -0.497000 0.332000 -0.167000
v -0.497000 0.498000 0.497000
v -0.497000 0.498000 -0.499000
v 0.001000 -0.166000 0.165000
v 0.001000 -0.166000 -0.001000
v 0.001000 0.000000 0.165000
v 0.001000 0.000000 -0.001000
v -0.165000 -0.166000 0.165000
v -0.165000 -0.166000 -0.001000
v -0.165000 0.000000 0.165000
v -0.165000 0.000000 -0.001000
v 0.499000 -0.498000 0.497000
v 0.499000 -0.498000 0.331000
v 0.499000 -0.498000 0.165000
v 0.499000 -0.498000 -0.001000
v 0.499000 -0.498000 -0.167000
v 0.499000 -0.498000 -0.333000
v 0.499000 -0.498000 -0.499000
v 0.499000 -0.332000 0.331000
v 0.499000 -0.332000 0.165000
v 0.499000 -0.166000 0.497000
v 0.499000 -0.166000 0.331000
v 0.499000 -0.166000 0.165000
v 0.499000 -0.166000 -0.001000
v 0.499000 -0.166000 -0.167000
v 0.499000 -0.166000 -0.333000
v 0.499000 -0.166000 -0.499000
v 0.499000 0.000000 0.165000
v 0.499000 0.000000 -0.001000
v 0.499000 0.000000 -0.167000
v 0.499000 0.166000 -0.167000
v 0.499000 0.166000 -0.333000
v 0.499000 0.166000 -0.499000
v 0.499000 0.332000 0.331000
v 0.499000 0.332000 0.165000
v 0.499000 0.332000 -0.001000
v 0.499000 0.332000 -0.167000
v 0.499000 0.332000 -0.333000
v 0.499000 0.498000 0.497000
v 0.499000 0.498000 -0.499000
v -0.497000 -0.498000 0.497000
v -0.497000 0.000000 0.497000
v -0.497000 0.332000 0.497000
v -0.497000 0.498000 0.497000
v -0.331000 -0.498000 0.497000
v -0.331000 -0.166000 0.497000
v -0.331000 0.000000 0.497000
v -0.331000 0.332000 0.497000
v -0.165000 -0.498000 0.497000
v -0.165000 -0.166000 0.497000
v -0.165000 0.332000 0.497000
v 0.001000 -0.498000 0.497000
v 0.001000 -0.166000 0.497000
v 0.001000 0.000000 0.497000
v 0.001000 0.166000 0.497000
v 0.001000 0.332000 0.497000
v 0.167000 -0.498000 0.497000
v 0.167000 -0.166000 0.497000
v 0.167000 0.000000 0.497000
v 0.167000 0.166000 0.497000
v 0.167000 0.332000 0.497000
v 0.333000 -0.166000 0.497000
v 0.333000 0.000000 0.497000
v 0.333000 0.332000 0.497000
v 0.499000 -0.498000 0.497000
v 0.499000 -0.166000 0.497000
v 0.499000 0.498000 0.497000
v -0.165000 -0.166000 -0.001000
v -0.165000 0.000000 -0.001000
v 0.001000 -0.166000 -0.001000
v 0.001000 0.000000 -0.001000
v -0.165000 -0.166000 0.165000
v -0.165000 0.000000 0.165000
v 0.001000 -0.166000 0.165000
v 0.001000 0.000000 0.165000
v -0.497000 -0.498000 -0.499000
v -0.497000 0.498000 -0.499000
v -0.331000 -0.498000 -0.499000
v -0.331000 -0.000000 -0.499000
v -0.331000 0.166000 -0.499000
v -0.165000 -0.498000 -0.499000
v -0.165000 -0.000000 -0.499000
v -0.165000 0.166000 -0.499000
v -0.165000 0.332000 -0.499000
v 0.001000 -0.498000 -0.499000
v 0.001000 -0.000000 -0.499000
v 0.001000 0.332000 -0.499000
v 0.167000 -0.498000 -0.499000
v 0.167000 -0.332000 -0.499000
v 0.167000 -0.000000 -0.499000
v 0.167000 0.166000 -0.499000
v 0.167000 0.332000 -0.499000
v 0.333000 -0.498000 -0.499000
v 0.333000 -0.332000 -0.499000
v 0.333000 -0.166000 -0.499000
v 0.333000 0.166000 -0.499000
v 0.333000 0.332000 -0.499000
v 0.499000 -0.498000 -0.499000
v 0.499000 -0.166000 -0.499000
v 0.499000 0.166000 -0.499000
v 0.499000 0.498000 -0.499000
v -0.497000 -0.498000 0.497000
v -0.331000 -0.498000 0.497000
v -0.165000 -0.498000 0.497000
v 0.001000 -0.498000 0.497000
v 0.167000 -0.498000 0.497000
v 0.499000 -0.498000 0.497000
v -0.497000 -0.498000 0.331000
v -0.331000 -0.498000 0.331000
v -0.165000 -0.498000 0.331000
v 0.001000 -0.498000 0.331000
v 0.167000 -0.498000 0.331000
v 0.333000 -0.498000 0.331000
v 0.499000 -0.498000 0.331000
v -0.497000 -0.498000 0.165000
v -0.331000 -0.498000 0.165000
v 0.333000 -0.498000 0.165000
v 0.499000 -0.498000 0.165000
v -0.497000 -0.498000 -0.001000
v -0.331000 -0.498000 -0.001000
v 0.333000 -0.498000 -0.001000
v 0.499000 -0.498000 -0.001000
v -0.497000 -0.498000 -0.167000
v -0.331000 -0.498000 -0.167000
v 0.333000 -0.498000 -0.167000
v 0.499000 -0.498000 -0.167000
v -0.497000 -0.498000 -0.333000
v -0.331000 -0.498000 -0.333000
v -0.165000 -0.498000 -0.333000
v 0.001000 -0.498000 -0.333000
v 0.167000 -0.498000 -0.333000
v 0.333000 -0.498000 -0.333000
v 0.499000 -0.498000 -0.333000
v -0.497000 -0.498000 -0.499000
v -0.331000 -0.498000 -0.499000
v -0.165000 -0.498000 -0.499000
v 0.001000 -0.498000 -0.499000
v 0.167000 -0.498000 -0.499000
v 0.333000 -0.498000 -0.499000
v 0.499000 -0.498000 -0.499000
v -0.165000 0.000000 0.165000
v 0.001000 0.000000 0.165000
v -0.165000 0.000000 -0.001000
v 0.001000 0.000000 -0.001000
v -0.165000 -0.166000 0.165000
v 0.001000 -0.166000 0.165000
v -0.165000 -0.166000 -0.001000
v 0.001000 -0.166000 -0.001000
v -0.497000 0.498000 0.497000
v 0.499000 0.498000 0.497000
v -0.331000 0.498000 0.331000
v 0.333000 0.498000 0.331000
v -0.165000 0.498000 0.165000
v 0.167000 0.498000 0.165000
v -0.165000 0.498000 -0.167000
v 0.167000 0.498000 -0.167000
v -0.331000 0.498000 -0.333000
v 0.333000 0.498000 -0.333000
v -0.497000 0.498000 -0.499000
v 0.499000 0.498000 -0.499000
vn -1.0000 -0.0000 -0.0000
vn 1.0000 -0.0000 -0.0000
vn -0.0000 -0.0000 1.0000
vn -0.0000 -0.0000 -1.0000
vn -0.0000 -1.0000 -0.0000
vn -0.0000 1.0000 -0.0000
vt 0.107422 0.500000
vt 0.158203 0.500000
vt 0.166016 0.500000
vt 0.130859 0.500000
vt 0.119141 0.500000
vt 0.775391 0.500000
vt 0.181641 0.500000
vt 0.115234 0.500000
vt 0.177734 0.500000
s 0
usemtl palette.004
f 8/1/1 3/1/1 2/1/1
f 8/2/1 4/2/1 3/2/1
f 9/3/1 5/3/1 4/3/1
f 9/2/1 4/2/1 8/2/1
f 10/3/1 2/3/1 1/3/1
f 10/1/1 8/1/1 2/1/1
f 11/4/1 9/4/1 8/4/1
f 11/1/1 8/1/1 10/1/1
f 12/3/1 5/3/1 9/3/1
f 12/4/1 9/4/1 11/4/1
f 13/1/1 6/1/1 5/1/1
f 13/3/1 5/3/1 12/3/1
f 14/5/1 7/5/1 6/5/1
f 14/1/1 6/1/1 13/1/1
f 15/3/1 11/3/1 10/3/1
f 15/3/1 10/3/1 1/3/1
f 16/3/1 11/3/1 15/3/1
f 17/4/1 16/4/1 15/4/1
f 18/3/1 11/3/1 16/3/1
f 18/4/1 16/4/1 17/4/1
f 19/5/1 12/5/1 11/5/1
f 19/3/1 11/3/1 18/3/1
f 20/3/1 13/3/1 12/3/1
f 20/5/1 12/5/1 19/5/1
f 21/5/1 14/5/1 13/5/1
f 21/3/1 13/3/1 20/3/1
f 22/5/1 19/5/1 18/5/1
f 22/5/1 18/5/1 17/5/1
f 22/5/1 21/5/1 20/5/1
f 22/5/1 20/5/1 19/5/1
f 23/5/1 7/5/1 14/5/1
f 23/5/1 21/5/1 22/5/1
f 23/5/1 14/5/1 21/5/1
f 26/6/1 25/6/1 24/6/1
f 27/6/1 25/6/1 26/6/1
f 28/6/2 29/6/2 30/6/2
f 30/6/2 29/6/2 31/6/2
f 32/1/2 33/1/2 39/1/2
f 33/4/2 34/4/2 39/4/2
f 34/1/2 35/1/2 40/1/2
f 39/4/2 34/4/2 40/4/2
f 32/1/2 39/1/2 41/1/2
f 39/7/2 40/7/2 42/7/2
f 41/1/2 39/1/2 42/1/2
f 40/1/2 35/1/2 43/1/2
f 42/7/2 40/7/2 43/7/2
f 35/3/2 36/3/2 44/3/2
f 43/1/2 35/1/2 44/1/2
f 36/8/2 37/8/2 45/8/2
f 44/3/2 36/3/2 45/3/2
f 37/1/2 38/1/2 46/1/2
f 45/8/2 37/8/2 46/8/2
f 46/1/2 38/1/2 47/1/2
f 43/1/2 44/1/2 48/1/2
f 42/4/2 43/4/2 48/4/2
f 44/4/2 45/4/2 49/4/2
f 48/1/2 44/1/2 49/1/2
f 45/1/2 46/1/2 50/1/2
f 49/4/2 45/4/2 50/4/2
f 49/5/2 50/5/2 51/5/2
f 50/1/2 46/1/2 51/1/2
f 46/3/2 47/3/2 52/3/2
f 51/1/2 46/1/2 52/1/2
f 52/3/2 47/3/2 53/3/2
f 42/4/2 48/4/2 54/4/2
f 41/5/2 42/5/2 54/5/2
f 48/2/2 49/2/2 55/2/2
f 54/4/2 48/4/2 55/4/2
f 49/5/2 51/5/2 56/5/2
f 55/2/2 49/2/2 56/2/2
f 51/4/2 52/4/2 57/4/2
f 56/5/2 51/5/2 57/5/2
f 52/5/2 53/5/2 58/5/2
f 57/4/2 52/4/2 58/4/2
f 56/5/2 57/5/2 59/5/2
f 54/5/2 55/5/2 59/5/2
f 57/5/2 58/5/2 59/5/2
f 55/5/2 56/5/2 59/5/2
f 41/5/2 54/5/2 59/5/2
f 58/5/2 53/5/2 60/5/2
f 59/5/2 58/5/2 60/5/2
f 65/3/3 62/3/3 61/3/3
f 66/3/3 62/3/3 65/3/3
f 67/4/3 63/4/3 62/4/3
f 67/3/3 62/3/3 66/3/3
f 68/5/3 64/5/3 63/5/3
f 68/4/3 63/4/3 67/4/3
f 69/1/3 66/1/3 65/1/3
f 70/5/3 67/5/3 66/5/3
f 70/1/3 66/1/3 69/1/3
f 70/5/3 68/5/3 67/5/3
f 71/5/3 64/5/3 68/5/3
f 71/5/3 68/5/3 70/5/3
f 72/2/3 70/2/3 69/2/3
f 73/4/3 71/4/3 70/4/3
f 73/2/3 70/2/3 72/2/3
f 74/4/3 71/4/3 73/4/3
f 75/4/3 71/4/3 74/4/3
f 76/5/3 64/5/3 71/5/3
f 76/4/3 71/4/3 75/4/3
f 77/8/3 73/8/3 72/8/3
f 78/2/3 74/2/3 73/2/3
f 78/8/3 73/8/3 77/8/3
f 79/8/3 75/8/3 74/8/3
f 79/2/3 74/2/3 78/2/3
f 80/5/3 76/5/3 75/5/3
f 80/8/3 75/8/3 79/8/3
f 81/5/3 64/5/3 76/5/3
f 81/5/3 76/5/3 80/5/3
f 82/1/3 78/1/3 77/1/3
f 82/1/3 79/1/3 78/1/3
f 83/4/3 80/4/3 79/4/3
f 83/1/3 79/1/3 82/1/3
f 83/4/3 81/4/3 80/4/3
f 84/5/3 64/5/3 81/5/3
f 84/4/3 81/4/3 83/4/3
f 85/1/3 82/1/3 77/1/3
f 86/5/3 83/5/3 82/5/3
f 86/1/3 82/1/3 85/1/3
f 86/5/3 84/5/3 83/5/3
f 87/5/3 64/5/3 84/5/3
f 87/5/3 84/5/3 86/5/3
f 90/6/3 89/6/3 88/6/3
f 91/6/3 89/6/3 90/6/3
f 92/6/4 93/6/4 94/6/4
f 94/6/4 93/6/4 95/6/4
f 96/5/4 97/5/4 98/5/4
f 98/5/4 97/5/4 99/5/4
f 99/5/4 97/5/4 100/5/4
f 98/7/4 99/7/4 101/7/4
f 99/8/4 100/8/4 102/8/4
f 101/7/4 99/7/4 102/7/4
f 100/5/4 97/5/4 103/5/4
f 102/8/4 100/8/4 103/8/4
f 103/5/4 97/5/4 104/5/4
f 101/2/4 102/2/4 105/2/4
f 102/2/4 103/2/4 105/2/4
f 103/2/4 104/2/4 105/2/4
f 105/2/4 104/2/4 106/2/4
f 104/5/4 97/5/4 107/5/4
f 106/2/4 104/2/4 107/2/4
f 105/1/4 106/1/4 108/1/4
f 108/1/4 106/1/4 109/1/4
f 106/7/4 107/7/4 110/7/4
f 109/1/4 106/1/4 110/1/4
f 110/7/4 107/7/4 111/7/4
f 107/5/4 97/5/4 112/5/4
f 111/7/4 107/7/4 112/7/4
f 108/8/4 109/8/4 113/8/4
f 110/2/4 111/2/4 114/2/4
f 113/8/4 109/8/4 114/8/4
f 109/2/4 110/2/4 114/2/4
f 114/2/4 111/2/4 115/2/4
f 111/8/4 112/8/4 116/8/4
f 115/2/4 111/2/4 116/2/4
f 112/5/4 97/5/4 117/5/4
f 116/8/4 112/8/4 117/8/4
f 114/1/4 115/1/4 118/1/4
f 113/1/4 114/1/4 118/1/4
f 115/3/4 116/3/4 119/3/4
f 118/1/4 115/1/4 119/1/4
f 116/5/4 117/5/4 120/5/4
f 119/3/4 116/3/4 120/3/4
f 117/5/4 97/5/4 121/5/4
f 120/5/4 117/5/4 121/5/4
f 128/3/5 123/3/5 122/3/5
f 129/1/5 124/1/5 123/1/5
f 129/3/5 123/3/5 128/3/5
f 130/2/5 125/2/5 124/2/5
f 130/1/5 124/1/5 129/1/5
f 131/8/5 126/8/5 125/8/5
f 131/2/5 125/2/5 130/2/5
f 132/1/5 127/1/5 126/1/5
f 132/8/5 126/8/5 131/8/5
f 133/1/5 127/1/5 132/1/5
f 134/1/5 127/1/5 133/1/5
f 135/1/5 129/1/5 128/1/5
f 136/5/5 131/5/5 130/5/5
f 136/1/5 129/1/5 135/1/5
f 136/5/5 130/5/5 129/5/5
f 136/5/5 132/5/5 131/5/5
f 136/5/5 133/5/5 132/5/5
f 137/4/5 134/4/5 133/4/5
f 137/5/5 133/5/5 136/5/5
f 138/4/5 134/4/5 137/4/5
f 139/2/5 136/2/5 135/2/5
f 140/5/5 137/5/5 136/5/5
f 140/2/5 136/2/5 139/2/5
f 141/1/5 138/1/5 137/1/5
f 141/5/5 137/5/5 140/5/5
f 142/1/5 138/1/5 141/1/5
f 143/3/5 140/3/5 139/3/5
f 144/5/5 141/5/5 140/5/5
f 144/3/5 140/3/5 143/3/5
f 145/3/5 142/3/5 141/3/5
f 145/5/5 141/5/5 144/5/5
f 146/3/5 142/3/5 145/3/5
f 147/1/5 144/1/5 143/1/5
f 148/5/5 145/5/5 144/5/5
f 148/1/5 144/1/5 147/1/5
f 149/5/5 145/5/5 148/5/5
f 150/5/5 145/5/5 149/5/5
f 151/5/5 145/5/5 150/5/5
f 152/8/5 146/8/5 145/8/5
f 152/5/5 145/5/5 151/5/5
f 153/8/5 146/8/5 152/8/5
f 154/5/5 148/5/5 147/5/5
f 155/7/5 149/7/5 148/7/5
f 155/5/5 148/5/5 154/5/5
f 156/2/5 150/2/5 149/2/5
f 156/7/5 149/7/5 155/7/5
f 157/1/5 151/1/5 150/1/5
f 157/2/5 150/2/5 156/2/5
f 158/8/5 152/8/5 151/8/5
f 158/1/5 151/1/5 157/1/5
f 159/1/5 153/1/5 152/1/5
f 159/8/5 152/8/5 158/8/5
f 160/1/5 153/1/5 159/1/5
f 163/6/5 162/6/5 161/6/5
f 164/6/5 162/6/5 163/6/5
f 165/6/6 166/6/6 167/6/6
f 167/6/6 166/6/6 168/6/6
f 169/5/6 170/5/6 171/5/6
f 171/5/6 170/5/6 172/5/6
f 171/9/6 172/9/6 173/9/6
f 173/9/6 172/9/6 174/9/6
f 171/9/6 173/9/6 175/9/6
f 173/7/6 174/7/6 175/7/6
f 174/9/6 172/9/6 176/9/6
f 175/7/6 174/7/6 176/7/6
f 169/5/6 171/5/6 177/5/6
f 171/9/6 175/9/6 177/9/6
f 175/9/6 176/9/6 177/9/6
f 176/9/6 172/9/6 178/9/6
f 177/9/6 176/9/6 178/9/6
f 172/5/6 170/5/6 178/5/6
f 169/5/6 177/5/6 179/5/6
f 177/5/6 178/5/6 179/5/6
f 178/5/6 170/5/6 180/5/6
f 179/5/6 178/5/6 180/5/6
