# Blender 4.0.2
# www.blender.org
mtllib cube.mtl
o Untitled
v -0.497000 -0.498000 0.497000
v -0.497000 -0.498000 -0.499000
v -0.497000 -0.166000 0.497000
v -0.497000 -0.166000 -0.499000
v -0.497000 0.498000 0.497000
v -0.497000 0.498000 -0.499000
v 0.333000 -0.332000 0.331000
v 0.333000 -0.332000 -0.333000
v 0.333000 -0.166000 -0.333000
v 0.333000 0.332000 0.331000
v 0.333000 0.332000 -0.333000
v -0.331000 -0.332000 0.331000
v -0.331000 -0.332000 -0.333000
v -0.331000 -0.166000 0.331000
v -0.331000 -0.166000 -0.333000
v -0.331000 0.332000 0.331000
v -0.331000 0.332000 -0.333000
v 0.499000 -0.498000 0.497000
v 0.499000 -0.498000 -0.499000
v 0.499000 -0.332000 0.497000
v 0.499000 -0.332000 -0.333000
v 0.499000 -0.166000 -0.333000
v 0.499000 -0.166000 -0.499000
v 0.499000 0.498000 0.497000
v 0.499000 0.498000 -0.499000
v -0.497000 -0.498000 0.497000
v -0.497000 -0.166000 0.497000
v -0.497000 0.498000 0.497000
v -0.331000 -0.332000 0.497000
v -0.331000 -0.166000 0.497000
v 0.499000 -0.498000 0.497000
v 0.499000 -0.332000 0.497000
v 0.499000 0.498000 0.497000
v -0.331000 -0.332000 -0.333000
v -0.331000 -0.166000 -0.333000
v -0.331000 0.332000 -0.333000
v 0.333000 -0.332000 -0.333000
v 0.333000 -0.166000 -0.333000
v 0.333000 0.332000 -0.333000
v -0.331000 -0.332000 0.331000
v -0.331000 -0.166000 0.331000
v -0.331000 0.332000 0.331000
v 0.333000 -0.332000 0.331000
v 0.333000 0.332000 0.331000
v -0.497000 -0.498000 -0.499000
v -0.497000 -0.166000 -0.499000
v -0.497000 0.498000 -0.499000
v 0.499000 -0.498000 -0.499000
v 0.499000 -0.166000 -0.499000
v 0.499000 0.498000 -0.499000
v -0.497000 -0.498000 0.497000
v 0.499000 -0.498000 0.497000
v -0.331000 -0.498000 0.331000
v 0.333000 -0.498000 0.331000
v -0.331000 -0.498000 -0.333000
v 0.333000 -0.498000 -0.333000
v -0.497000 -0.498000 -0.499000
v 0.499000 -0.498000 -0.499000
v -0.331000 0.332000 0.331000
v 0.333000 0.332000 0.331000
v -0.331000 0.332000 -0.333000
v 0.333000 0.332000 -0.333000
v -0.331000 -0.332000 0.331000
v 0.333000 -0.332000 0.331000
v -0.331000 -0.332000 -0.333000
v 0.333000 -0.332000 -0.333000
v -0.497000 0.498000 0.497000
v 0.499000 0.498000 0.497000
v -0.497000 0.498000 -0.499000
v 0.499000 0.498000 -0.499000
vn -1.0000 -0.0000 -0.0000
vn 1.0000 -0.0000 -0.0000
vn -0.0000 -0.0000 1.0000
vn -0.0000 -0.0000 -1.0000
vn -0.0000 -1.0000 -0.0000
vn -0.0000 1.0000 -0.0000
vt 0.912109 0.500000
vt 0.001953 0.500000
s 0
usemtl palette.009
f 3/1/1 2/1/1 1/1/1
f 4/1/1 2/1/1 3/1/1
f 5/2/1 4/2/1 3/2/1
f 6/2/1 4/2/1 5/2/1
f 9/2/1 8/2/1 7/2/1
f 10/2/1 9/2/1 7/2/1
f 11/2/1 9/2/1 10/2/1
f 12/1/2 13/1/2 14/1/2
f 14/1/2 13/1/2 15/1/2
f 14/2/2 15/2/2 16/2/2
f 16/2/2 15/2/2 17/2/2
f 18/1/2 19/1/2 20/1/2
f 20/1/2 19/1/2 21/1/2
f 20/2/2 21/2/2 22/2/2
f 21/1/2 19/1/2 22/1/2
f 22/1/2 19/1/2 23/1/2
f 20/2/2 22/2/2 24/2/2
f 22/2/2 23/2/2 24/2/2
f 24/2/2 23/2/2 25/2/2
f 29/1/3 27/1/3 26/1/3
f 30/2/3 28/2/3 27/2/3
f 30/1/3 27/1/3 29/1/3
f 31/1/3 29/1/3 26/1/3
f 32/2/3 30/2/3 29/2/3
f 32/1/3 29/1/3 31/1/3
f 33/2/3 28/2/3 30/2/3
f 33/2/3 30/2/3 32/2/3
f 37/1/3 35/1/3 34/1/3
f 38/2/3 36/2/3 35/2/3
f 38/1/3 35/1/3 37/1/3
f 39/2/3 36/2/3 38/2/3
f 40/2/4 41/2/4 43/2/4
f 41/2/4 42/2/4 43/2/4
f 43/2/4 42/2/4 44/2/4
f 45/1/4 46/1/4 48/1/4
f 46/2/4 47/2/4 49/2/4
f 48/1/4 46/1/4 49/1/4
f 49/2/4 47/2/4 50/2/4
f 53/1/5 52/1/5 51/1/5
f 54/1/5 52/1/5 53/1/5
f 55/1/5 53/1/5 51/1/5
f 55/2/5 54/2/5 53/2/5
f 56/1/5 52/1/5 54/1/5
f 56/2/5 54/2/5 55/2/5
f 57/1/5 55/1/5 51/1/5
f 57/1/5 56/1/5 55/1/5
f 58/1/5 52/1/5 56/1/5
f 58/1/5 56/1/5 57/1/5
f 61/2/5 60/2/5 59/2/5
f 62/2/5 60/2/5 61/2/5
f 63/2/6 64/2/6 65/2/6
f 65/2/6 64/2/6 66/2/6
f 67/2/6 68/2/6 69/2/6
f 69/2/6 68/2/6 70/2/6
