# Blender 4.0.2
# www.blender.org
mtllib wall.mtl
o Untitled
v -0.497000 -0.498000 0.497000
v -0.497000 -0.498000 0.331000
v -0.497000 -0.498000 0.165000
v -0.497000 -0.498000 -0.001000
v -0.497000 -0.498000 -0.167000
v -0.497000 -0.498000 -0.333000
v -0.497000 -0.498000 -0.499000
v -0.497000 -0.332000 0.331000
v -0.497000 -0.332000 0.165000
v -0.497000 -0.166000 0.497000
v -0.497000 -0.166000 0.331000
v -0.497000 -0.166000 -0.001000
v -0.497000 -0.166000 -0.167000
v -0.497000 -0.166000 -0.333000
v -0.497000 -0.166000 -0.499000
v -0.497000 0.000000 0.165000
v -0.497000 0.000000 -0.001000
v -0.497000 0.000000 -0.167000
v -0.497000 -0.000000 -0.333000
v -0.497000 -0.000000 -0.499000
v -0.497000 0.166000 -0.001000
v -0.497000 0.166000 -0.167000
v -0.497000 0.332000 0.331000
v -0.497000 0.332000 0.165000
v -0.497000 0.332000 -0.001000
v -0.497000 0.332000 -0.167000
v -0.497000 0.332000 -0.333000
v -0.497000 0.498000 0.497000
v -0.497000 0.498000 -0.499000
v 0.001000 -0.166000 0.165000
v 0.001000 -0.166000 -0.001000
v 0.001000 0.000000 0.165000
v 0.001000 0.000000 -0.001000
v -0.165000 -0.166000 0.165000
v -0.165000 -0.166000 -0.001000
v -0.165000 0.000000 0.165000
v -0.165000 0.000000 -0.001000
v 0.499000 -0.498000 0.497000
v 0.499000 -0.498000 0.165000
v 0.499000 -0.498000 -0.001000
v 0.499000 -0.498000 -0.167000
v 0.499000 -0.498000 -0.333000
v 0.499000 -0.498000 -0.499000
v 0.499000 -0.332000 0.497000
v 0.499000 -0.332000 0.331000
v 0.499000 -0.332000 -0.001000
v 0.499000 -0.332000 -0.167000
v 0.499000 -0.166000 0.331000
v 0.499000 -0.166000 0.165000
v 0.499000 -0.166000 -0.001000
v 0.499000 -0.166000 -0.167000
v 0.499000 -0.166000 -0.333000
v 0.499000 -0.166000 -0.499000
v 0.499000 0.000000 0.331000
v 0.499000 0.000000 0.165000
v 0.499000 0.000000 -0.001000
v 0.499000 0.000000 -0.167000
v 0.499000 -0.000000 -0.333000
v 0.499000 -0.000000 -0.499000
v 0.499000 0.166000 0.331000
v 0.499000 0.166000 0.165000
v 0.499000 0.166000 -0.001000
v 0.499000 0.166000 -0.167000
v 0.499000 0.332000 0.165000
v 0.499000 0.332000 -0.001000
v 0.499000 0.332000 -0.167000
v 0.499000 0.332000 -0.333000
v 0.499000 0.498000 0.497000
v 0.499000 0.498000 -0.499000
v -0.497000 -0.498000 0.497000
v -0.497000 -0.166000 0.497000
v -0.497000 0.498000 0.497000
v -0.331000 -0.498000 0.497000
v -0.331000 -0.166000 0.497000
v -0.331000 0.000000 0.497000
v -0.331000 0.332000 0.497000
v -0.165000 -0.498000 0.497000
v -0.165000 0.000000 0.497000
v -0.165000 0.166000 0.497000
v -0.165000 0.332000 0.497000
v 0.001000 -0.498000 0.497000
v 0.001000 -0.332000 0.497000
v 0.001000 0.000000 0.497000
v 0.001000 0.166000 0.497000
v 0.167000 -0.498000 0.497000
v 0.167000 -0.332000 0.497000
v 0.167000 0.000000 0.497000
v 0.167000 0.166000 0.497000
v 0.167000 0.332000 0.497000
v 0.333000 -0.498000 0.497000
v 0.333000 -0.332000 0.497000
v 0.333000 0.332000 0.497000
v 0.499000 -0.498000 0.497000
v 0.499000 -0.332000 0.497000
v 0.499000 0.498000 0.497000
v -0.165000 -0.166000 -0.001000
v -0.165000 0.000000 -0.001000
v 0.001000 -0.166000 -0.001000
v 0.001000 0.000000 -0.001000
v -0.165000 -0.166000 0.165000
v -0.165000 0.000000 0.165000
v 0.001000 -0.166000 0.165000
v 0.001000 0.000000 0.165000
v -0.497000 -0.498000 -0.499000
v -0.497000 -0.166000 -0.499000
v -0.497000 -0.000000 -0.499000
v -0.497000 0.498000 -0.499000
v -0.331000 -0.498000 -0.499000
v -0.331000 -0.166000 -0.499000
v -0.331000 -0.000000 -0.499000
v -0.331000 0.332000 -0.499000
v -0.165000 -0.498000 -0.499000
v -0.165000 -0.332000 -0.499000
v -0.165000 -0.166000 -0.499000
v -0.165000 0.166000 -0.499000
v -0.165000 0.332000 -0.499000
v 0.001000 -0.498000 -0.499000
v 0.001000 -0.332000 -0.499000
v 0.001000 -0.166000 -0.499000
v 0.001000 -0.000000 -0.499000
v 0.001000 0.166000 -0.499000
v 0.001000 0.332000 -0.499000
v 0.167000 -0.498000 -0.499000
v 0.167000 -0.166000 -0.499000
v 0.167000 -0.000000 -0.499000
v 0.167000 0.166000 -0.499000
v 0.167000 0.332000 -0.499000
v 0.333000 -0.498000 -0.499000
v 0.333000 -0.166000 -0.499000
v 0.333000 -0.000000 -0.499000
v 0.333000 0.166000 -0.499000
v 0.499000 -0.498000 -0.499000
v 0.499000 -0.166000 -0.499000
v 0.499000 -0.000000 -0.499000
v 0.499000 0.498000 -0.499000
v -0.497000 -0.498000 0.497000
v -0.331000 -0.498000 0.497000
v -0.165000 -0.498000 0.497000
v 0.001000 -0.498000 0.497000
v 0.167000 -0.498000 0.497000
v 0.333000 -0.498000 0.497000
v 0.499000 -0.498000 0.497000
v -0.497000 -0.498000 0.331000
v -0.331000 -0.498000 0.331000
v -0.165000 -0.498000 0.331000
v 0.001000 -0.498000 0.331000
v 0.167000 -0.498000 0.331000
v 0.333000 -0.498000 0.331000
v -0.497000 -0.498000 0.165000
v -0.331000 -0.498000 0.165000
v -0.165000 -0.498000 0.165000
v 0.167000 -0.498000 0.165000
v 0.333000 -0.498000 0.165000
v 0.499000 -0.498000 0.165000
v -0.497000 -0.498000 -0.001000
v -0.331000 -0.498000 -0.001000
v 0.333000 -0.498000 -0.001000
v 0.499000 -0.498000 -0.001000
v -0.497000 -0.498000 -0.167000
v -0.331000 -0.498000 -0.167000
v -0.165000 -0.498000 -0.167000
v 0.167000 -0.498000 -0.167000
v 0.333000 -0.498000 -0.167000
v 0.499000 -0.498000 -0.167000
v -0.497000 -0.498000 -0.333000
v -0.331000 -0.498000 -0.333000
v -0.165000 -0.498000 -0.333000
v 0.001000 -0.498000 -0.333000
v 0.167000 -0.498000 -0.333000
v 0.333000 -0.498000 -0.333000
v 0.499000 -0.498000 -0.333000
v -0.497000 -0.498000 -0.499000
v -0.331000 -0.498000 -0.499000
v -0.165000 -0.498000 -0.499000
v 0.001000 -0.498000 -0.499000
v 0.167000 -0.498000 -0.499000
v 0.333000 -0.498000 -0.499000
v 0.499000 -0.498000 -0.499000
v -0.165000 0.000000 0.165000
v 0.001000 0.000000 0.165000
v -0.165000 0.000000 -0.001000
v 0.001000 0.000000 -0.001000
v -0.165000 -0.166000 0.165000
v 0.001000 -0.166000 0.165000
v -0.165000 -0.166000 -0.001000
v 0.001000 -0.166000 -0.001000
v -0.497000 0.498000 0.497000
v 0.499000 0.498000 0.497000
v -0.331000 0.498000 0.331000
v 0.333000 0.498000 0.331000
v -0.165000 0.498000 0.165000
v 0.167000 0.498000 0.165000
v -0.165000 0.498000 -0.167000
v 0.167000 0.498000 -0.167000
v -0.331000 0.498000 -0.333000
v 0.333000 0.498000 -0.333000
v -0.497000 0.498000 -0.499000
v 0.499000 0.498000 -0.499000
vn -1.0000 -0.0000 -0.0000
vn 1.0000 -0.0000 -0.0000
vn -0.0000 -0.0000 1.0000
vn -0.0000 -0.0000 -1.0000
vn -0.0000 -1.0000 -0.0000
vn -0.0000 1.0000 -0.0000
vt 0.189453 0.500000
vt 0.130859 0.500000
vt 0.162109 0.500000
vt 0.201172 0.500000
vt 0.228516 0.500000
vt 0.158203 0.500000
vt 0.775391 0.500000
vt 0.220703 0.500000
s 0
usemtl palette.003
f 8/1/1 2/1/1 1/1/1
f 8/2/1 3/2/1 2/2/1
f 9/3/1 4/3/1 3/3/1
f 9/2/1 3/2/1 8/2/1
f 10/1/1 8/1/1 1/1/1
f 11/4/1 9/4/1 8/4/1
f 11/1/1 8/1/1 10/1/1
f 12/3/1 4/3/1 9/3/1
f 12/2/1 5/2/1 4/2/1
f 13/1/1 6/1/1 5/1/1
f 13/2/1 5/2/1 12/2/1
f 14/5/1 7/5/1 6/5/1
f 14/1/1 6/1/1 13/1/1
f 15/5/1 7/5/1 14/5/1
f 16/3/1 12/3/1 9/3/1
f 16/4/1 9/4/1 11/4/1
f 17/5/1 13/5/1 12/5/1
f 17/3/1 12/3/1 16/3/1
f 18/1/1 15/1/1 14/1/1
f 18/5/1 13/5/1 17/5/1
f 18/1/1 14/1/1 13/1/1
f 19/1/1 15/1/1 18/1/1
f 20/1/1 15/1/1 19/1/1
f 21/1/1 17/1/1 16/1/1
f 21/5/1 18/5/1 17/5/1
f 21/5/1 19/5/1 18/5/1
f 22/5/1 19/5/1 21/5/1
f 23/4/1 16/4/1 11/4/1
f 23/6/1 11/6/1 10/6/1
f 24/1/1 21/1/1 16/1/1
f 24/4/1 16/4/1 23/4/1
f 25/6/1 22/6/1 21/6/1
f 25/1/1 21/1/1 24/1/1
f 26/5/1 19/5/1 22/5/1
f 26/6/1 22/6/1 25/6/1
f 27/6/1 20/6/1 19/6/1
f 27/5/1 19/5/1 26/5/1
f 28/6/1 25/6/1 24/6/1
f 28/6/1 24/6/1 23/6/1
f 28/6/1 27/6/1 26/6/1
f 28/6/1 23/6/1 10/6/1
f 28/6/1 26/6/1 25/6/1
f 29/6/1 20/6/1 27/6/1
f 29/6/1 27/6/1 28/6/1
f 32/7/1 31/7/1 30/7/1
f 33/7/1 31/7/1 32/7/1
f 34/7/2 35/7/2 36/7/2
f 36/7/2 35/7/2 37/7/2
f 38/2/2 39/2/2 44/2/2
f 44/2/2 39/2/2 45/2/2
f 39/4/2 40/4/2 46/4/2
f 40/6/2 41/6/2 46/6/2
f 41/4/2 42/4/2 47/4/2
f 46/6/2 41/6/2 47/6/2
f 45/2/2 39/2/2 48/2/2
f 44/6/2 45/6/2 48/6/2
f 39/4/2 46/4/2 49/4/2
f 48/2/2 39/2/2 49/2/2
f 46/1/2 47/1/2 50/1/2
f 49/4/2 46/4/2 50/4/2
f 47/4/2 42/4/2 51/4/2
f 50/1/2 47/1/2 51/1/2
f 42/6/2 43/6/2 52/6/2
f 51/4/2 42/4/2 52/4/2
f 52/6/2 43/6/2 53/6/2
f 48/8/2 49/8/2 54/8/2
f 44/6/2 48/6/2 54/6/2
f 49/3/2 50/3/2 55/3/2
f 54/8/2 49/8/2 55/8/2
f 50/1/2 51/1/2 56/1/2
f 55/3/2 50/3/2 56/3/2
f 51/6/2 52/6/2 57/6/2
f 56/1/2 51/1/2 57/1/2
f 52/3/2 53/3/2 58/3/2
f 57/6/2 52/6/2 58/6/2
f 58/3/2 53/3/2 59/3/2
f 54/2/2 55/2/2 60/2/2
f 44/6/2 54/6/2 60/6/2
f 55/3/2 56/3/2 61/3/2
f 60/2/2 55/2/2 61/2/2
f 56/6/2 57/6/2 62/6/2
f 61/3/2 56/3/2 62/3/2
f 57/8/2 58/8/2 63/8/2
f 62/6/2 57/6/2 63/6/2
f 60/6/2 61/6/2 64/6/2
f 61/3/2 62/3/2 64/3/2
f 62/2/2 63/2/2 65/2/2
f 64/3/2 62/3/2 65/3/2
f 63/8/2 58/8/2 66/8/2
f 65/2/2 63/2/2 66/2/2
f 58/6/2 59/6/2 67/6/2
f 66/8/2 58/8/2 67/8/2
f 65/6/2 66/6/2 68/6/2
f 64/6/2 65/6/2 68/6/2
f 66/6/2 67/6/2 68/6/2
f 60/6/2 64/6/2 68/6/2
f 44/6/2 60/6/2 68/6/2
f 67/6/2 59/6/2 69/6/2
f 68/6/2 67/6/2 69/6/2
f 73/1/3 71/1/3 70/1/3
f 74/6/3 72/6/3 71/6/3
f 74/1/3 71/1/3 73/1/3
f 75/6/3 72/6/3 74/6/3
f 76/6/3 72/6/3 75/6/3
f 77/2/3 74/2/3 73/2/3
f 77/2/3 75/2/3 74/2/3
f 78/3/3 76/3/3 75/3/3
f 78/2/3 75/2/3 77/2/3
f 79/3/3 76/3/3 78/3/3
f 80/6/3 72/6/3 76/6/3
f 80/3/3 76/3/3 79/3/3
f 81/4/3 79/4/3 78/4/3
f 81/4/3 78/4/3 77/4/3
f 82/4/3 79/4/3 81/4/3
f 83/4/3 79/4/3 82/4/3
f 84/6/3 80/6/3 79/6/3
f 84/4/3 79/4/3 83/4/3
f 85/2/3 82/2/3 81/2/3
f 86/3/3 83/3/3 82/3/3
f 86/2/3 82/2/3 85/2/3
f 87/2/3 84/2/3 83/2/3
f 87/3/3 83/3/3 86/3/3
f 88/6/3 80/6/3 84/6/3
f 88/2/3 84/2/3 87/2/3
f 89/6/3 72/6/3 80/6/3
f 89/6/3 80/6/3 88/6/3
f 90/6/3 86/6/3 85/6/3
f 91/1/3 88/1/3 87/1/3
f 91/6/3 86/6/3 90/6/3
f 91/1/3 87/1/3 86/1/3
f 91/1/3 89/1/3 88/1/3
f 92/6/3 72/6/3 89/6/3
f 92/1/3 89/1/3 91/1/3
f 93/2/3 91/2/3 90/2/3
f 94/6/3 92/6/3 91/6/3
f 94/2/3 91/2/3 93/2/3
f 95/6/3 72/6/3 92/6/3
f 95/6/3 92/6/3 94/6/3
f 98/7/3 97/7/3 96/7/3
f 99/7/3 97/7/3 98/7/3
f 100/7/4 101/7/4 102/7/4
f 102/7/4 101/7/4 103/7/4
f 104/5/4 105/5/4 108/5/4
f 105/1/4 106/1/4 109/1/4
f 108/5/4 105/5/4 109/5/4
f 106/6/4 107/6/4 110/6/4
f 109/1/4 106/1/4 110/1/4
f 110/6/4 107/6/4 111/6/4
f 108/8/4 109/8/4 112/8/4
f 112/8/4 109/8/4 113/8/4
f 109/5/4 110/5/4 114/5/4
f 113/8/4 109/8/4 114/8/4
f 110/5/4 111/5/4 114/5/4
f 114/5/4 111/5/4 115/5/4
f 111/6/4 107/6/4 116/6/4
f 115/5/4 111/5/4 116/5/4
f 112/6/4 113/6/4 117/6/4
f 114/3/4 115/3/4 118/3/4
f 117/6/4 113/6/4 118/6/4
f 113/3/4 114/3/4 118/3/4
f 118/3/4 115/3/4 119/3/4
f 119/3/4 115/3/4 120/3/4
f 115/6/4 116/6/4 121/6/4
f 120/3/4 115/3/4 121/3/4
f 116/6/4 107/6/4 122/6/4
f 121/6/4 116/6/4 122/6/4
f 117/5/4 118/5/4 123/5/4
f 118/5/4 119/5/4 123/5/4
f 119/6/4 120/6/4 124/6/4
f 123/5/4 119/5/4 124/5/4
f 120/1/4 121/1/4 125/1/4
f 124/6/4 120/6/4 125/6/4
f 121/1/4 122/1/4 125/1/4
f 125/1/4 122/1/4 126/1/4
f 122/6/4 107/6/4 127/6/4
f 126/1/4 122/1/4 127/1/4
f 123/2/4 124/2/4 128/2/4
f 125/2/4 126/2/4 128/2/4
f 124/2/4 125/2/4 128/2/4
f 128/2/4 126/2/4 129/2/4
f 129/2/4 126/2/4 130/2/4
f 126/6/4 127/6/4 131/6/4
f 130/2/4 126/2/4 131/2/4
f 128/6/4 129/6/4 132/6/4
f 129/3/4 130/3/4 133/3/4
f 132/6/4 129/6/4 133/6/4
f 130/6/4 131/6/4 134/6/4
f 133/3/4 130/3/4 134/3/4
f 127/6/4 107/6/4 135/6/4
f 134/6/4 131/6/4 135/6/4
f 131/6/4 127/6/4 135/6/4
f 143/1/5 137/1/5 136/1/5
f 144/2/5 138/2/5 137/2/5
f 144/1/5 137/1/5 143/1/5
f 145/4/5 139/4/5 138/4/5
f 145/2/5 138/2/5 144/2/5
f 146/2/5 140/2/5 139/2/5
f 146/4/5 139/4/5 145/4/5
f 147/6/5 141/6/5 140/6/5
f 147/2/5 140/2/5 146/2/5
f 148/2/5 142/2/5 141/2/5
f 148/6/5 141/6/5 147/6/5
f 149/2/5 144/2/5 143/2/5
f 150/1/5 147/1/5 146/1/5
f 150/2/5 144/2/5 149/2/5
f 150/1/5 145/1/5 144/1/5
f 150/1/5 148/1/5 147/1/5
f 150/1/5 146/1/5 145/1/5
f 151/1/5 148/1/5 150/1/5
f 152/1/5 148/1/5 151/1/5
f 153/2/5 142/2/5 148/2/5
f 153/1/5 148/1/5 152/1/5
f 154/2/5 142/2/5 153/2/5
f 155/3/5 150/3/5 149/3/5
f 156/1/5 151/1/5 150/1/5
f 156/3/5 150/3/5 155/3/5
f 157/1/5 153/1/5 152/1/5
f 157/4/5 154/4/5 153/4/5
f 158/4/5 154/4/5 157/4/5
f 159/2/5 156/2/5 155/2/5
f 160/1/5 151/1/5 156/1/5
f 160/2/5 156/2/5 159/2/5
f 161/2/5 152/2/5 151/2/5
f 161/1/5 151/1/5 160/1/5
f 162/1/5 157/1/5 152/1/5
f 162/2/5 152/2/5 161/2/5
f 163/6/5 158/6/5 157/6/5
f 163/1/5 157/1/5 162/1/5
f 164/6/5 158/6/5 163/6/5
f 165/1/5 160/1/5 159/1/5
f 165/1/5 161/1/5 160/1/5
f 165/1/5 162/1/5 161/1/5
f 165/1/5 163/1/5 162/1/5
f 166/1/5 163/1/5 165/1/5
f 167/1/5 163/1/5 166/1/5
f 168/1/5 163/1/5 167/1/5
f 169/1/5 163/1/5 168/1/5
f 170/4/5 164/4/5 163/4/5
f 170/1/5 163/1/5 169/1/5
f 171/4/5 164/4/5 170/4/5
f 172/5/5 166/5/5 165/5/5
f 173/8/5 167/8/5 166/8/5
f 173/5/5 166/5/5 172/5/5
f 174/6/5 168/6/5 167/6/5
f 174/8/5 167/8/5 173/8/5
f 175/5/5 169/5/5 168/5/5
f 175/6/5 168/6/5 174/6/5
f 176/2/5 170/2/5 169/2/5
f 176/5/5 169/5/5 175/5/5
f 177/6/5 171/6/5 170/6/5
f 177/2/5 170/2/5 176/2/5
f 178/6/5 171/6/5 177/6/5
f 181/7/5 180/7/5 179/7/5
f 182/7/5 180/7/5 181/7/5
f 183/7/6 184/7/6 185/7/6
f 185/7/6 184/7/6 186/7/6
f 187/6/6 188/6/6 189/6/6
f 189/6/6 188/6/6 190/6/6
f 189/1/6 190/1/6 191/1/6
f 191/1/6 190/1/6 192/1/6
f 189/1/6 191/1/6 193/1/6
f 191/2/6 192/2/6 193/2/6
f 192/1/6 190/1/6 194/1/6
f 193/2/6 192/2/6 194/2/6
f 187/6/6 189/6/6 195/6/6
f 189/1/6 193/1/6 195/1/6
f 193/1/6 194/1/6 195/1/6
f 194/1/6 190/1/6 196/1/6
f 195/1/6 194/1/6 196/1/6
f 190/6/6 188/6/6 196/6/6
f 187/6/6 195/6/6 197/6/6
f 195/6/6 196/6/6 197/6/6
f 196/6/6 188/6/6 198/6/6
f 197/6/6 196/6/6 198/6/6
