# Blender 4.0.2
# www.blender.org
mtllib wall.mtl
o Untitled
v -0.497000 -0.498000 0.497000
v -0.497000 -0.498000 -0.167000
v -0.497000 -0.498000 -0.333000
v -0.497000 -0.498000 -0.499000
v -0.497000 -0.332000 0.165000
v -0.497000 -0.332000 -0.001000
v -0.497000 -0.332000 -0.333000
v -0.497000 -0.332000 -0.499000
v -0.497000 -0.166000 0.497000
v -0.497000 -0.166000 0.331000
v -0.497000 -0.166000 0.165000
v -0.497000 -0.166000 -0.001000
v -0.497000 -0.166000 -0.167000
v -0.497000 0.166000 0.165000
v -0.497000 0.166000 -0.001000
v -0.497000 0.166000 -0.333000
v -0.497000 0.166000 -0.499000
v -0.497000 0.332000 0.497000
v -0.497000 0.332000 0.331000
v -0.497000 0.332000 0.165000
v -0.497000 0.332000 -0.001000
v -0.497000 0.332000 -0.167000
v -0.497000 0.332000 -0.333000
v -0.497000 0.498000 0.497000
v -0.497000 0.498000 -0.499000
v 0.001000 -0.166000 0.165000
v 0.001000 -0.166000 -0.001000
v 0.001000 0.000000 0.165000
v 0.001000 0.000000 -0.001000
v -0.165000 -0.166000 0.165000
v -0.165000 -0.166000 -0.001000
v -0.165000 0.000000 0.165000
v -0.165000 0.000000 -0.001000
v 0.499000 -0.498000 0.497000
v 0.499000 -0.498000 0.331000
v 0.499000 -0.498000 0.165000
v 0.499000 -0.498000 -0.001000
v 0.499000 -0.498000 -0.167000
v 0.499000 -0.498000 -0.499000
v 0.499000 -0.166000 0.497000
v 0.499000 -0.166000 0.331000
v 0.499000 -0.166000 -0.001000
v 0.499000 -0.166000 -0.167000
v 0.499000 -0.166000 -0.333000
v 0.499000 0.000000 0.497000
v 0.499000 0.000000 0.331000
v 0.499000 0.000000 0.165000
v 0.499000 0.000000 -0.001000
v 0.499000 -0.000000 -0.333000
v 0.499000 -0.000000 -0.499000
v 0.499000 0.166000 -0.167000
v 0.499000 0.166000 -0.333000
v 0.499000 0.166000 -0.499000
v 0.499000 0.332000 0.331000
v 0.499000 0.332000 0.165000
v 0.499000 0.332000 -0.167000
v 0.499000 0.332000 -0.333000
v 0.499000 0.498000 0.497000
v 0.499000 0.498000 -0.499000
v -0.497000 -0.498000 0.497000
v -0.497000 -0.166000 0.497000
v -0.497000 0.332000 0.497000
v -0.497000 0.498000 0.497000
v -0.331000 -0.498000 0.497000
v -0.331000 -0.166000 0.497000
v -0.331000 0.166000 0.497000
v -0.331000 0.332000 0.497000
v -0.165000 -0.498000 0.497000
v -0.165000 0.000000 0.497000
v -0.165000 0.166000 0.497000
v -0.165000 0.332000 0.497000
v 0.001000 -0.498000 0.497000
v 0.001000 -0.332000 0.497000
v 0.001000 0.000000 0.497000
v 0.001000 0.332000 0.497000
v 0.167000 -0.498000 0.497000
v 0.167000 -0.332000 0.497000
v 0.167000 -0.166000 0.497000
v 0.167000 0.332000 0.497000
v 0.333000 -0.498000 0.497000
v 0.333000 -0.166000 0.497000
v 0.333000 0.000000 0.497000
v 0.499000 -0.498000 0.497000
v 0.499000 -0.166000 0.497000
v 0.499000 0.000000 0.497000
v 0.499000 0.498000 0.497000
v -0.165000 -0.166000 -0.001000
v -0.165000 0.000000 -0.001000
v 0.001000 -0.166000 -0.001000
v 0.001000 0.000000 -0.001000
v -0.165000 -0.166000 0.165000
v -0.165000 0.000000 0.165000
v 0.001000 -0.166000 0.165000
v 0.001000 0.000000 0.165000
v -0.497000 -0.498000 -0.499000
v -0.497000 -0.332000 -0.499000
v -0.497000 0.166000 -0.499000
v -0.497000 0.498000 -0.499000
v -0.331000 -0.332000 -0.499000
v -0.331000 -0.166000 -0.499000
v -0.331000 0.166000 -0.499000
v -0.331000 0.332000 -0.499000
v -0.165000 -0.498000 -0.499000
v -0.165000 -0.166000 -0.499000
v -0.165000 0.332000 -0.499000
v 0.001000 -0.166000 -0.499000
v 0.001000 0.332000 -0.499000
v 0.167000 -0.498000 -0.499000
v 0.167000 -0.166000 -0.499000
v 0.167000 0.332000 -0.499000
v 0.333000 -0.498000 -0.499000
v 0.333000 -0.000000 -0.499000
v 0.333000 0.166000 -0.499000
v 0.333000 0.332000 -0.499000
v 0.499000 -0.498000 -0.499000
v 0.499000 -0.000000 -0.499000
v 0.499000 0.166000 -0.499000
v 0.499000 0.498000 -0.499000
v -0.497000 -0.498000 0.497000
v -0.331000 -0.498000 0.497000
v -0.165000 -0.498000 0.497000
v 0.001000 -0.498000 0.497000
v 0.167000 -0.498000 0.497000
v 0.333000 -0.498000 0.497000
v 0.499000 -0.498000 0.497000
v -0.331000 -0.498000 0.331000
v -0.165000 -0.498000 0.331000
v 0.001000 -0.498000 0.331000
v 0.167000 -0.498000 0.331000
v 0.333000 -0.498000 0.331000
v 0.499000 -0.498000 0.331000
v 0.333000 -0.498000 0.165000
v 0.499000 -0.498000 0.165000
v 0.333000 -0.498000 -0.001000
v 0.499000 -0.498000 -0.001000
v -0.497000 -0.498000 -0.167000
v -0.331000 -0.498000 -0.167000
v 0.333000 -0.498000 -0.167000
v 0.499000 -0.498000 -0.167000
v -0.497000 -0.498000 -0.333000
v -0.331000 -0.498000 -0.333000
v -0.165000 -0.498000 -0.333000
v 0.167000 -0.498000 -0.333000
v 0.333000 -0.498000 -0.333000
v -0.497000 -0.498000 -0.499000
v -0.165000 -0.498000 -0.499000
v 0.167000 -0.498000 -0.499000
v 0.333000 -0.498000 -0.499000
v 0.499000 -0.498000 -0.499000
v -0.165000 0.000000 0.165000
v 0.001000 0.000000 0.165000
v -0.165000 0.000000 -0.001000
v 0.001000 0.000000 -0.001000
v -0.165000 -0.166000 0.165000
v 0.001000 -0.166000 0.165000
v -0.165000 -0.166000 -0.001000
v 0.001000 -0.166000 -0.001000
v -0.497000 0.498000 0.497000
v 0.499000 0.498000 0.497000
v -0.331000 0.498000 0.331000
v 0.333000 0.498000 0.331000
v -0.165000 0.498000 0.165000
v 0.167000 0.498000 0.165000
v -0.165000 0.498000 -0.167000
v 0.167000 0.498000 -0.167000
v -0.331000 0.498000 -0.333000
v 0.333000 0.498000 -0.333000
v -0.497000 0.498000 -0.499000
v 0.499000 0.498000 -0.499000
vn -1.0000 -0.0000 -0.0000
vn 1.0000 -0.0000 -0.0000
vn -0.0000 -0.0000 1.0000
vn -0.0000 -0.0000 -1.0000
vn -0.0000 -1.0000 -0.0000
vn -0.0000 1.0000 -0.0000
vt 0.119141 0.500000
vt 0.216797 0.500000
vt 0.095703 0.500000
vt 0.201172 0.500000
vt 0.775391 0.500000
vt 0.177734 0.500000
vt 0.181641 0.500000
s 0
usemtl palette.005
f 5/1/1 2/1/1 1/1/1
f 6/1/1 2/1/1 5/1/1
f 7/1/1 4/1/1 3/1/1
f 7/2/1 3/2/1 2/2/1
f 8/1/1 4/1/1 7/1/1
f 9/1/1 5/1/1 1/1/1
f 10/1/1 5/1/1 9/1/1
f 11/3/1 6/3/1 5/3/1
f 11/1/1 5/1/1 10/1/1
f 12/1/1 2/1/1 6/1/1
f 12/3/1 6/3/1 11/3/1
f 13/2/1 7/2/1 2/2/1
f 13/1/1 2/1/1 12/1/1
f 14/2/1 11/2/1 10/2/1
f 14/3/1 12/3/1 11/3/1
f 15/4/1 13/4/1 12/4/1
f 15/3/1 12/3/1 14/3/1
f 16/2/1 7/2/1 13/2/1
f 16/3/1 8/3/1 7/3/1
f 17/3/1 8/3/1 16/3/1
f 18/4/1 10/4/1 9/4/1
f 19/2/1 14/2/1 10/2/1
f 19/4/1 10/4/1 18/4/1
f 20/1/1 15/1/1 14/1/1
f 20/2/1 14/2/1 19/2/1
f 21/4/1 13/4/1 15/4/1
f 21/1/1 15/1/1 20/1/1
f 22/2/1 16/2/1 13/2/1
f 22/4/1 13/4/1 21/4/1
f 23/1/1 17/1/1 16/1/1
f 23/2/1 16/2/1 22/2/1
f 24/1/1 20/1/1 19/1/1
f 24/1/1 19/1/1 18/1/1
f 24/1/1 23/1/1 22/1/1
f 24/1/1 22/1/1 21/1/1
f 24/1/1 21/1/1 20/1/1
f 25/1/1 17/1/1 23/1/1
f 25/1/1 23/1/1 24/1/1
f 28/5/1 27/5/1 26/5/1
f 29/5/1 27/5/1 28/5/1
f 30/5/2 31/5/2 32/5/2
f 32/5/2 31/5/2 33/5/2
f 34/1/2 35/1/2 40/1/2
f 35/2/2 36/2/2 41/2/2
f 40/1/2 35/1/2 41/1/2
f 36/3/2 37/3/2 42/3/2
f 37/4/2 38/4/2 42/4/2
f 38/3/2 39/3/2 43/3/2
f 42/4/2 38/4/2 43/4/2
f 43/3/2 39/3/2 44/3/2
f 40/3/2 41/3/2 45/3/2
f 41/2/2 36/2/2 46/2/2
f 45/3/2 41/3/2 46/3/2
f 36/3/2 42/3/2 47/3/2
f 46/2/2 36/2/2 47/2/2
f 42/1/2 43/1/2 48/1/2
f 47/3/2 42/3/2 48/3/2
f 44/3/2 39/3/2 49/3/2
f 43/4/2 44/4/2 49/4/2
f 49/3/2 39/3/2 50/3/2
f 48/1/2 43/1/2 51/1/2
f 47/1/2 48/1/2 51/1/2
f 49/4/2 50/4/2 51/4/2
f 43/4/2 49/4/2 51/4/2
f 51/4/2 50/4/2 52/4/2
f 52/4/2 50/4/2 53/4/2
f 45/1/2 46/1/2 54/1/2
f 46/2/2 47/2/2 54/2/2
f 47/1/2 51/1/2 55/1/2
f 54/2/2 47/2/2 55/2/2
f 51/2/2 52/2/2 56/2/2
f 55/1/2 51/1/2 56/1/2
f 52/1/2 53/1/2 57/1/2
f 56/2/2 52/2/2 57/2/2
f 55/1/2 56/1/2 58/1/2
f 45/1/2 54/1/2 58/1/2
f 56/1/2 57/1/2 58/1/2
f 54/1/2 55/1/2 58/1/2
f 57/1/2 53/1/2 59/1/2
f 58/1/2 57/1/2 59/1/2
f 64/1/3 61/1/3 60/1/3
f 65/4/3 62/4/3 61/4/3
f 65/1/3 61/1/3 64/1/3
f 66/4/3 62/4/3 65/4/3
f 67/1/3 63/1/3 62/1/3
f 67/4/3 62/4/3 66/4/3
f 68/2/3 66/2/3 65/2/3
f 68/2/3 65/2/3 64/2/3
f 69/2/3 66/2/3 68/2/3
f 70/1/3 67/1/3 66/1/3
f 70/2/3 66/2/3 69/2/3
f 71/1/3 63/1/3 67/1/3
f 71/1/3 67/1/3 70/1/3
f 72/1/3 69/1/3 68/1/3
f 73/1/3 69/1/3 72/1/3
f 74/4/3 70/4/3 69/4/3
f 74/1/3 69/1/3 73/1/3
f 74/4/3 71/4/3 70/4/3
f 75/1/3 63/1/3 71/1/3
f 75/4/3 71/4/3 74/4/3
f 76/4/3 73/4/3 72/4/3
f 77/3/3 74/3/3 73/3/3
f 77/4/3 73/4/3 76/4/3
f 77/3/3 75/3/3 74/3/3
f 78/3/3 75/3/3 77/3/3
f 79/1/3 63/1/3 75/1/3
f 79/3/3 75/3/3 78/3/3
f 80/2/3 78/2/3 77/2/3
f 80/2/3 77/2/3 76/2/3
f 81/1/3 79/1/3 78/1/3
f 81/2/3 78/2/3 80/2/3
f 82/1/3 79/1/3 81/1/3
f 83/1/3 81/1/3 80/1/3
f 84/3/3 82/3/3 81/3/3
f 84/1/3 81/1/3 83/1/3
f 85/1/3 79/1/3 82/1/3
f 85/3/3 82/3/3 84/3/3
f 86/1/3 63/1/3 79/1/3
f 86/1/3 79/1/3 85/1/3
f 89/5/3 88/5/3 87/5/3
f 90/5/3 88/5/3 89/5/3
f 91/5/4 92/5/4 93/5/4
f 93/5/4 92/5/4 94/5/4
f 95/1/4 96/1/4 99/1/4
f 96/3/4 97/3/4 99/3/4
f 99/3/4 97/3/4 100/3/4
f 97/1/4 98/1/4 101/1/4
f 100/3/4 97/3/4 101/3/4
f 101/1/4 98/1/4 102/1/4
f 99/1/4 100/1/4 103/1/4
f 95/1/4 99/1/4 103/1/4
f 101/2/4 102/2/4 104/2/4
f 103/1/4 100/1/4 104/1/4
f 100/2/4 101/2/4 104/2/4
f 102/1/4 98/1/4 105/1/4
f 104/2/4 102/2/4 105/2/4
f 103/4/4 104/4/4 106/4/4
f 104/4/4 105/4/4 106/4/4
f 105/1/4 98/1/4 107/1/4
f 106/4/4 105/4/4 107/4/4
f 103/4/4 106/4/4 108/4/4
f 106/1/4 107/1/4 109/1/4
f 108/4/4 106/4/4 109/4/4
f 107/1/4 98/1/4 110/1/4
f 109/1/4 107/1/4 110/1/4
f 108/2/4 109/2/4 111/2/4
f 109/2/4 110/2/4 111/2/4
f 111/2/4 110/2/4 112/2/4
f 112/2/4 110/2/4 113/2/4
f 110/1/4 98/1/4 114/1/4
f 113/2/4 110/2/4 114/2/4
f 111/3/4 112/3/4 115/3/4
f 112/4/4 113/4/4 116/4/4
f 115/3/4 112/3/4 116/3/4
f 113/1/4 114/1/4 117/1/4
f 116/4/4 113/4/4 117/4/4
f 114/1/4 98/1/4 118/1/4
f 117/1/4 114/1/4 118/1/4
f 126/1/5 120/1/5 119/1/5
f 126/2/5 121/2/5 120/2/5
f 127/1/5 122/1/5 121/1/5
f 127/2/5 121/2/5 126/2/5
f 128/4/5 123/4/5 122/4/5
f 128/1/5 122/1/5 127/1/5
f 129/2/5 124/2/5 123/2/5
f 129/4/5 123/4/5 128/4/5
f 130/1/5 125/1/5 124/1/5
f 130/2/5 124/2/5 129/2/5
f 131/1/5 125/1/5 130/1/5
f 132/1/5 129/1/5 128/1/5
f 132/1/5 128/1/5 127/1/5
f 132/2/5 131/2/5 130/2/5
f 132/1/5 130/1/5 129/1/5
f 132/1/5 127/1/5 126/1/5
f 133/2/5 131/2/5 132/2/5
f 134/1/5 132/1/5 126/1/5
f 134/3/5 133/3/5 132/3/5
f 135/3/5 133/3/5 134/3/5
f 136/1/5 126/1/5 119/1/5
f 136/1/5 134/1/5 126/1/5
f 137/1/5 134/1/5 136/1/5
f 138/4/5 135/4/5 134/4/5
f 138/1/5 134/1/5 137/1/5
f 139/4/5 135/4/5 138/4/5
f 140/2/5 137/2/5 136/2/5
f 141/1/5 138/1/5 137/1/5
f 141/2/5 137/2/5 140/2/5
f 142/1/5 138/1/5 141/1/5
f 143/1/5 138/1/5 142/1/5
f 144/3/5 139/3/5 138/3/5
f 144/1/5 138/1/5 143/1/5
f 145/1/5 141/1/5 140/1/5
f 145/1/5 142/1/5 141/1/5
f 146/4/5 143/4/5 142/4/5
f 146/1/5 142/1/5 145/1/5
f 147/2/5 144/2/5 143/2/5
f 147/4/5 143/4/5 146/4/5
f 148/3/5 139/3/5 144/3/5
f 148/2/5 144/2/5 147/2/5
f 149/3/5 139/3/5 148/3/5
f 152/5/5 151/5/5 150/5/5
f 153/5/5 151/5/5 152/5/5
f 154/5/6 155/5/6 156/5/6
f 156/5/6 155/5/6 157/5/6
f 158/1/6 159/1/6 160/1/6
f 160/1/6 159/1/6 161/1/6
f 160/6/6 161/6/6 162/6/6
f 162/6/6 161/6/6 163/6/6
f 160/6/6 162/6/6 164/6/6
f 162/7/6 163/7/6 164/7/6
f 163/6/6 161/6/6 165/6/6
f 164/7/6 163/7/6 165/7/6
f 158/1/6 160/1/6 166/1/6
f 160/6/6 164/6/6 166/6/6
f 164/6/6 165/6/6 166/6/6
f 165/6/6 161/6/6 167/6/6
f 166/6/6 165/6/6 167/6/6
f 161/1/6 159/1/6 167/1/6
f 158/1/6 166/1/6 168/1/6
f 166/1/6 167/1/6 168/1/6
f 167/1/6 159/1/6 169/1/6
f 168/1/6 167/1/6 169/1/6
