# Blender 4.0.2
# www.blender.org
mtllib wall2.mtl
o Untitled
v -0.497000 -0.498000 0.497000
v -0.497000 -0.498000 0.331000
v -0.497000 -0.498000 -0.001000
v -0.497000 -0.498000 -0.167000
v -0.497000 -0.498000 -0.333000
v -0.497000 -0.498000 -0.499000
v -0.497000 -0.332000 0.331000
v -0.497000 -0.332000 0.165000
v -0.497000 -0.332000 -0.001000
v -0.497000 -0.166000 -0.333000
v -0.497000 -0.166000 -0.499000
v -0.497000 0.000000 0.497000
v -0.497000 0.000000 0.331000
v -0.497000 0.000000 -0.001000
v -0.497000 0.000000 -0.167000
v -0.497000 0.166000 0.497000
v -0.497000 0.166000 0.331000
v -0.497000 0.166000 0.165000
v -0.497000 0.166000 -0.167000
v -0.497000 0.166000 -0.333000
v -0.497000 0.332000 0.165000
v -0.497000 0.332000 -0.001000
v -0.497000 0.332000 -0.167000
v -0.497000 0.332000 -0.333000
v -0.497000 0.332000 -0.499000
v -0.497000 0.498000 0.497000
v -0.497000 0.498000 -0.499000
v 0.001000 -0.166000 0.165000
v 0.001000 -0.166000 -0.001000
v 0.001000 0.000000 0.165000
v 0.001000 0.000000 -0.001000
v -0.165000 -0.166000 0.165000
v -0.165000 -0.166000 -0.001000
v -0.165000 0.000000 0.165000
v -0.165000 0.000000 -0.001000
v 0.499000 -0.498000 0.497000
v 0.499000 -0.498000 0.331000
v 0.499000 -0.498000 0.165000
v 0.499000 -0.498000 -0.001000
v 0.499000 -0.498000 -0.167000
v 0.499000 -0.498000 -0.333000
v 0.499000 -0.498000 -0.499000
v 0.499000 -0.166000 0.165000
v 0.499000 -0.166000 -0.001000
v 0.499000 0.000000 -0.001000
v 0.499000 0.000000 -0.167000
v 0.499000 -0.000000 -0.333000
v 0.499000 0.166000 0.497000
v 0.499000 0.166000 0.331000
v 0.499000 0.166000 0.165000
v 0.499000 0.332000 0.165000
v 0.499000 0.332000 -0.001000
v 0.499000 0.332000 -0.167000
v 0.499000 0.332000 -0.333000
v 0.499000 0.332000 -0.499000
v 0.499000 0.498000 0.497000
v 0.499000 0.498000 -0.499000
v -0.497000 -0.498000 0.497000
v -0.497000 0.000000 0.497000
v -0.497000 0.166000 0.497000
v -0.497000 0.498000 0.497000
v -0.331000 -0.498000 0.497000
v -0.331000 -0.166000 0.497000
v -0.331000 0.000000 0.497000
v -0.331000 0.166000 0.497000
v -0.331000 0.332000 0.497000
v -0.165000 -0.498000 0.497000
v -0.165000 -0.166000 0.497000
v -0.165000 0.332000 0.497000
v 0.001000 -0.498000 0.497000
v 0.001000 -0.166000 0.497000
v 0.001000 0.166000 0.497000
v 0.167000 -0.498000 0.497000
v 0.167000 -0.166000 0.497000
v 0.167000 0.000000 0.497000
v 0.167000 0.166000 0.497000
v 0.333000 -0.498000 0.497000
v 0.333000 0.000000 0.497000
v 0.333000 0.166000 0.497000
v 0.499000 -0.498000 0.497000
v 0.499000 0.166000 0.497000
v 0.499000 0.498000 0.497000
v -0.165000 -0.166000 -0.001000
v -0.165000 0.000000 -0.001000
v 0.001000 -0.166000 -0.001000
v 0.001000 0.000000 -0.001000
v -0.165000 -0.166000 0.165000
v -0.165000 0.000000 0.165000
v 0.001000 -0.166000 0.165000
v 0.001000 0.000000 0.165000
v -0.497000 -0.498000 -0.499000
v -0.497000 -0.166000 -0.499000
v -0.497000 0.332000 -0.499000
v -0.497000 0.498000 -0.499000
v -0.331000 -0.498000 -0.499000
v -0.331000 -0.166000 -0.499000
v -0.331000 -0.000000 -0.499000
v -0.331000 0.332000 -0.499000
v -0.165000 -0.498000 -0.499000
v -0.165000 -0.000000 -0.499000
v -0.165000 0.332000 -0.499000
v 0.001000 -0.498000 -0.499000
v 0.001000 0.332000 -0.499000
v 0.167000 -0.498000 -0.499000
v 0.167000 -0.332000 -0.499000
v 0.167000 0.166000 -0.499000
v 0.167000 0.332000 -0.499000
v 0.333000 -0.498000 -0.499000
v 0.333000 -0.332000 -0.499000
v 0.333000 0.166000 -0.499000
v 0.333000 0.332000 -0.499000
v 0.499000 -0.498000 -0.499000
v 0.499000 0.332000 -0.499000
v 0.499000 0.498000 -0.499000
v -0.497000 -0.498000 0.497000
v -0.331000 -0.498000 0.497000
v -0.165000 -0.498000 0.497000
v 0.001000 -0.498000 0.497000
v 0.167000 -0.498000 0.497000
v 0.333000 -0.498000 0.497000
v 0.499000 -0.498000 0.497000
v -0.497000 -0.498000 0.331000
v -0.331000 -0.498000 0.331000
v -0.165000 -0.498000 0.331000
v 0.001000 -0.498000 0.331000
v 0.167000 -0.498000 0.331000
v 0.333000 -0.498000 0.331000
v 0.499000 -0.498000 0.331000
v 0.333000 -0.498000 0.165000
v 0.499000 -0.498000 0.165000
v -0.497000 -0.498000 -0.001000
v -0.331000 -0.498000 -0.001000
v 0.333000 -0.498000 -0.001000
v 0.499000 -0.498000 -0.001000
v -0.497000 -0.498000 -0.167000
v -0.331000 -0.498000 -0.167000
v 0.333000 -0.498000 -0.167000
v 0.499000 -0.498000 -0.167000
v -0.497000 -0.498000 -0.333000
v -0.331000 -0.498000 -0.333000
v -0.165000 -0.498000 -0.333000
v 0.001000 -0.498000 -0.333000
v 0.167000 -0.498000 -0.333000
v 0.333000 -0.498000 -0.333000
v 0.499000 -0.498000 -0.333000
v -0.497000 -0.498000 -0.499000
v -0.331000 -0.498000 -0.499000
v -0.165000 -0.498000 -0.499000
v 0.001000 -0.498000 -0.499000
v 0.167000 -0.498000 -0.499000
v 0.333000 -0.498000 -0.499000
v 0.499000 -0.498000 -0.499000
v -0.165000 0.000000 0.165000
v 0.001000 0.000000 0.165000
v -0.165000 0.000000 -0.001000
v 0.001000 0.000000 -0.001000
v -0.165000 -0.166000 0.165000
v 0.001000 -0.166000 0.165000
v -0.165000 -0.166000 -0.001000
v 0.001000 -0.166000 -0.001000
v -0.497000 0.498000 0.497000
v 0.499000 0.498000 0.497000
v -0.331000 0.498000 0.331000
v 0.333000 0.498000 0.331000
v -0.165000 0.498000 0.165000
v 0.167000 0.498000 0.165000
v -0.165000 0.498000 -0.167000
v 0.167000 0.498000 -0.167000
v -0.331000 0.498000 -0.333000
v 0.333000 0.498000 -0.333000
v -0.497000 0.498000 -0.499000
v 0.499000 0.498000 -0.499000
vn -1.0000 -0.0000 -0.0000
vn 1.0000 -0.0000 -0.0000
vn -0.0000 -0.0000 1.0000
vn -0.0000 -0.0000 -1.0000
vn -0.0000 -1.0000 -0.0000
vn -0.0000 1.0000 -0.0000
vt 0.166016 0.500000
vt 0.158203 0.500000
vt 0.119141 0.500000
vt 0.181641 0.500000
vt 0.775391 0.500000
vt 0.177734 0.500000
s 0
usemtl palette.003
f 7/1/1 2/1/1 1/1/1
f 7/2/1 3/2/1 2/2/1
f 8/2/1 3/2/1 7/2/1
f 9/1/1 4/1/1 3/1/1
f 9/2/1 3/2/1 8/2/1
f 10/3/1 6/3/1 5/3/1
f 10/4/1 5/4/1 4/4/1
f 11/3/1 6/3/1 10/3/1
f 12/1/1 8/1/1 7/1/1
f 12/1/1 7/1/1 1/1/1
f 13/1/1 8/1/1 12/1/1
f 14/1/1 4/1/1 9/1/1
f 14/4/1 9/4/1 8/4/1
f 15/4/1 10/4/1 4/4/1
f 15/1/1 4/1/1 14/1/1
f 16/2/1 13/2/1 12/2/1
f 17/1/1 8/1/1 13/1/1
f 17/2/1 13/2/1 16/2/1
f 18/4/1 14/4/1 8/4/1
f 18/1/1 8/1/1 17/1/1
f 19/4/1 10/4/1 15/4/1
f 19/2/1 15/2/1 14/2/1
f 20/2/1 11/2/1 10/2/1
f 20/4/1 10/4/1 19/4/1
f 21/4/1 14/4/1 18/4/1
f 21/3/1 17/3/1 16/3/1
f 21/3/1 18/3/1 17/3/1
f 22/2/1 19/2/1 14/2/1
f 22/4/1 14/4/1 21/4/1
f 23/3/1 20/3/1 19/3/1
f 23/2/1 19/2/1 22/2/1
f 24/2/1 11/2/1 20/2/1
f 24/3/1 20/3/1 23/3/1
f 25/2/1 11/2/1 24/2/1
f 26/3/1 23/3/1 22/3/1
f 26/3/1 21/3/1 16/3/1
f 26/3/1 25/3/1 24/3/1
f 26/3/1 24/3/1 23/3/1
f 26/3/1 22/3/1 21/3/1
f 27/3/1 25/3/1 26/3/1
f 30/5/1 29/5/1 28/5/1
f 31/5/1 29/5/1 30/5/1
f 32/5/2 33/5/2 34/5/2
f 34/5/2 33/5/2 35/5/2
f 37/4/2 38/4/2 43/4/2
f 38/3/2 39/3/2 43/3/2
f 39/1/2 40/1/2 44/1/2
f 43/3/2 39/3/2 44/3/2
f 43/2/2 44/2/2 45/2/2
f 44/1/2 40/1/2 45/1/2
f 40/3/2 41/3/2 46/3/2
f 45/1/2 40/1/2 46/1/2
f 41/1/2 42/1/2 47/1/2
f 46/3/2 41/3/2 47/3/2
f 36/1/2 37/1/2 48/1/2
f 37/4/2 43/4/2 49/4/2
f 48/1/2 37/1/2 49/1/2
f 43/2/2 45/2/2 50/2/2
f 49/4/2 43/4/2 50/4/2
f 48/3/2 49/3/2 51/3/2
f 50/2/2 45/2/2 51/2/2
f 49/3/2 50/3/2 51/3/2
f 45/3/2 46/3/2 52/3/2
f 51/2/2 45/2/2 52/2/2
f 46/4/2 47/4/2 53/4/2
f 52/3/2 46/3/2 53/3/2
f 47/1/2 42/1/2 54/1/2
f 53/4/2 47/4/2 54/4/2
f 54/1/2 42/1/2 55/1/2
f 52/3/2 53/3/2 56/3/2
f 48/3/2 51/3/2 56/3/2
f 54/3/2 55/3/2 56/3/2
f 53/3/2 54/3/2 56/3/2
f 51/3/2 52/3/2 56/3/2
f 56/3/2 55/3/2 57/3/2
f 62/1/3 59/1/3 58/1/3
f 63/1/3 59/1/3 62/1/3
f 64/2/3 60/2/3 59/2/3
f 64/1/3 59/1/3 63/1/3
f 65/3/3 61/3/3 60/3/3
f 65/2/3 60/2/3 64/2/3
f 66/3/3 61/3/3 65/3/3
f 67/3/3 63/3/3 62/3/3
f 68/4/3 64/4/3 63/4/3
f 68/3/3 63/3/3 67/3/3
f 68/4/3 65/4/3 64/4/3
f 68/4/3 66/4/3 65/4/3
f 69/3/3 61/3/3 66/3/3
f 69/4/3 66/4/3 68/4/3
f 70/2/3 68/2/3 67/2/3
f 71/3/3 69/3/3 68/3/3
f 71/2/3 68/2/3 70/2/3
f 72/3/3 69/3/3 71/3/3
f 73/3/3 71/3/3 70/3/3
f 74/2/3 72/2/3 71/2/3
f 74/3/3 71/3/3 73/3/3
f 75/2/3 72/2/3 74/2/3
f 76/3/3 69/3/3 72/3/3
f 76/2/3 72/2/3 75/2/3
f 77/4/3 75/4/3 74/4/3
f 77/4/3 74/4/3 73/4/3
f 78/3/3 76/3/3 75/3/3
f 78/4/3 75/4/3 77/4/3
f 79/3/3 69/3/3 76/3/3
f 79/3/3 76/3/3 78/3/3
f 80/1/3 78/1/3 77/1/3
f 80/1/3 79/1/3 78/1/3
f 81/3/3 69/3/3 79/3/3
f 81/1/3 79/1/3 80/1/3
f 82/3/3 61/3/3 69/3/3
f 82/3/3 69/3/3 81/3/3
f 85/5/3 84/5/3 83/5/3
f 86/5/3 84/5/3 85/5/3
f 87/5/4 88/5/4 89/5/4
f 89/5/4 88/5/4 90/5/4
f 91/3/4 92/3/4 95/3/4
f 92/2/4 93/2/4 96/2/4
f 95/3/4 92/3/4 96/3/4
f 96/2/4 93/2/4 97/2/4
f 93/3/4 94/3/4 98/3/4
f 97/2/4 93/2/4 98/2/4
f 96/4/4 97/4/4 99/4/4
f 95/4/4 96/4/4 99/4/4
f 97/3/4 98/3/4 100/3/4
f 99/4/4 97/4/4 100/4/4
f 98/3/4 94/3/4 101/3/4
f 100/3/4 98/3/4 101/3/4
f 99/2/4 100/2/4 102/2/4
f 100/2/4 101/2/4 102/2/4
f 101/3/4 94/3/4 103/3/4
f 102/2/4 101/2/4 103/2/4
f 102/4/4 103/4/4 104/4/4
f 104/4/4 103/4/4 105/4/4
f 105/4/4 103/4/4 106/4/4
f 103/3/4 94/3/4 107/3/4
f 106/4/4 103/4/4 107/4/4
f 104/3/4 105/3/4 108/3/4
f 105/2/4 106/2/4 109/2/4
f 108/3/4 105/3/4 109/3/4
f 106/3/4 107/3/4 110/3/4
f 109/2/4 106/2/4 110/2/4
f 107/3/4 94/3/4 111/3/4
f 110/3/4 107/3/4 111/3/4
f 109/1/4 110/1/4 112/1/4
f 108/1/4 109/1/4 112/1/4
f 110/1/4 111/1/4 112/1/4
f 111/3/4 94/3/4 113/3/4
f 112/1/4 111/1/4 113/1/4
f 113/3/4 94/3/4 114/3/4
f 122/1/5 116/1/5 115/1/5
f 123/3/5 117/3/5 116/3/5
f 123/1/5 116/1/5 122/1/5
f 124/2/5 118/2/5 117/2/5
f 124/3/5 117/3/5 123/3/5
f 125/3/5 119/3/5 118/3/5
f 125/2/5 118/2/5 124/2/5
f 126/4/5 120/4/5 119/4/5
f 126/3/5 119/3/5 125/3/5
f 127/1/5 121/1/5 120/1/5
f 127/4/5 120/4/5 126/4/5
f 128/1/5 121/1/5 127/1/5
f 129/3/5 126/3/5 125/3/5
f 129/3/5 124/3/5 123/3/5
f 129/4/5 128/4/5 127/4/5
f 129/3/5 127/3/5 126/3/5
f 129/3/5 125/3/5 124/3/5
f 130/4/5 128/4/5 129/4/5
f 131/2/5 123/2/5 122/2/5
f 132/3/5 129/3/5 123/3/5
f 132/2/5 123/2/5 131/2/5
f 132/3/5 130/3/5 129/3/5
f 133/3/5 130/3/5 132/3/5
f 134/3/5 130/3/5 133/3/5
f 135/1/5 132/1/5 131/1/5
f 136/3/5 133/3/5 132/3/5
f 136/1/5 132/1/5 135/1/5
f 137/1/5 134/1/5 133/1/5
f 137/3/5 133/3/5 136/3/5
f 138/1/5 134/1/5 137/1/5
f 139/4/5 136/4/5 135/4/5
f 140/3/5 137/3/5 136/3/5
f 140/4/5 136/4/5 139/4/5
f 140/3/5 138/3/5 137/3/5
f 141/3/5 138/3/5 140/3/5
f 142/3/5 138/3/5 141/3/5
f 143/3/5 138/3/5 142/3/5
f 144/3/5 138/3/5 143/3/5
f 145/3/5 138/3/5 144/3/5
f 146/3/5 140/3/5 139/3/5
f 147/4/5 141/4/5 140/4/5
f 147/3/5 140/3/5 146/3/5
f 148/2/5 142/2/5 141/2/5
f 148/4/5 141/4/5 147/4/5
f 149/4/5 143/4/5 142/4/5
f 149/2/5 142/2/5 148/2/5
f 150/3/5 144/3/5 143/3/5
f 150/4/5 143/4/5 149/4/5
f 151/1/5 145/1/5 144/1/5
f 151/3/5 144/3/5 150/3/5
f 152/1/5 145/1/5 151/1/5
f 155/5/5 154/5/5 153/5/5
f 156/5/5 154/5/5 155/5/5
f 157/5/6 158/5/6 159/5/6
f 159/5/6 158/5/6 160/5/6
f 161/3/6 162/3/6 163/3/6
f 163/3/6 162/3/6 164/3/6
f 163/6/6 164/6/6 165/6/6
f 165/6/6 164/6/6 166/6/6
f 163/6/6 165/6/6 167/6/6
f 165/4/6 166/4/6 167/4/6
f 166/6/6 164/6/6 168/6/6
f 167/4/6 166/4/6 168/4/6
f 161/3/6 163/3/6 169/3/6
f 163/6/6 167/6/6 169/6/6
f 167/6/6 168/6/6 169/6/6
f 168/6/6 164/6/6 170/6/6
f 169/6/6 168/6/6 170/6/6
f 164/3/6 162/3/6 170/3/6
f 161/3/6 169/3/6 171/3/6
f 169/3/6 170/3/6 171/3/6
f 170/3/6 162/3/6 172/3/6
f 171/3/6 170/3/6 172/3/6
